<svg width="308" height="389" viewBox="0 0 308 389" fill="none" xmlns="http://www.w3.org/2000/svg">
<path d="M285.306 132.57C285.306 154.407 279.561 174.908 269.498 192.644C248.466 229.721 208.574 254.742 162.827 254.742C159.833 254.742 156.861 254.632 153.926 254.42C90.4354 249.878 40.3477 197.054 40.3477 132.57C40.3477 68.0864 95.18 10.3975 162.827 10.3975C230.473 10.3975 285.306 65.0926 285.306 132.57Z" fill="#462255"/>
<path d="M269.497 192.644C248.466 229.721 208.574 254.742 162.827 254.742C159.833 254.742 156.861 254.632 153.926 254.42C154.051 253.121 154.183 251.785 154.316 250.413C156.773 225.362 158.781 217.929 162.621 210.173C166.6 202.139 170.992 196.877 174.096 193.209C192.45 171.489 220.3 156.909 225.905 162.434C227.347 163.843 225.817 165.098 226.302 177.821C226.678 187.573 227.744 191.22 230.26 193.994C230.701 194.478 232.629 196.533 236.586 197.941C245.774 201.207 253.998 196.76 263.877 193.994C265.025 193.671 266.974 193.157 269.497 192.644Z" fill="#DADFF7"/>
<path d="M202.307 36.8425C208.854 40.8562 216.174 45.3396 222.61 54.2035C229.37 63.5077 231.489 72.5844 233.159 79.7166C234.13 83.8844 235.115 89.6078 236.587 98.1269C237.543 103.689 238.021 106.477 238.168 107.857C239.169 117.447 238.389 125.944 237.903 131C237.823 131.851 237.859 131.381 237.374 135.997C236.373 145.558 236.204 147.642 236.057 148.882C234.873 158.641 228.546 166.742 225.244 170.975C223.044 173.793 218.586 179.509 212.326 183.339C210.693 184.337 209.075 185.122 206.787 187.023C203.668 189.62 203.131 191.11 199.931 193.069C197.518 194.551 195.606 195.065 195.187 195.175C193.605 195.579 192.377 195.623 189.912 195.703C186.396 195.813 186.256 195.498 183.851 195.703C180.85 195.96 180.621 196.496 178.576 196.496C175.627 196.489 173.383 195.366 172.515 194.918C169.411 193.326 169.117 191.697 165.13 188.344C163.129 186.656 161.827 185.915 160.385 184.924C154.11 180.632 149.549 174.762 146.408 170.719C142.944 166.265 139.442 161.759 136.654 154.935C134.087 148.661 134.734 146.812 131.38 140.208C130.011 137.516 128.864 135.777 128.217 132.577C127.643 129.782 127.849 127.793 128.217 123.112C128.511 119.347 128.658 115.561 129.011 111.804C130.276 98.2296 129.916 99.9686 130.593 93.6582C131.806 82.3508 132.388 76.6935 133.491 72.6137C137.228 58.8336 144.231 50.1384 145.886 48.1499C149.696 43.5638 152.86 39.7556 158.546 36.8425C162.548 34.788 170.352 34.1569 185.969 32.8948C187.698 32.7554 190.692 32.5353 194.407 33.4232C197.636 34.1936 200.093 35.4777 202.315 36.8425H202.307Z" fill="#DADFF7" stroke="#462255" stroke-miterlimit="10"/>
<path d="M266.821 61.1009C266.858 56.0673 265.276 51.173 263.717 46.3889C262.687 43.2263 261.51 39.851 258.833 37.8625C256.994 36.4977 254.684 35.9694 252.455 35.4337C249.262 34.6632 246.048 33.7901 243.223 32.1244C240.398 30.4588 237.963 27.8906 237.132 24.728C236.742 23.2385 236.713 21.6609 236.249 20.1933C235.47 17.6912 233.403 15.6366 230.894 14.8662C227.017 13.6775 222.611 15.4605 218.837 13.9783C217.138 13.3106 215.755 12.0485 214.137 11.212C210.613 9.39226 206.229 9.80317 202.669 11.5569C201.168 11.0139 199.616 10.7864 197.976 11.1386C195.077 11.7697 192.826 14.1911 191.671 16.9207C190.509 19.6357 190.266 22.6588 190.104 25.6085C190.09 25.858 190.09 26.1075 190.075 26.3643C188.876 29.4315 188.368 32.6674 189.148 35.8373C189.325 36.5417 189.56 37.2168 189.825 37.8845C189.847 41.2892 189.95 44.6939 190.149 48.0985C191.186 48.304 192.319 48.4728 193.496 48.6489C194.474 49.1698 195.813 48.9864 197.659 49.1698C200.455 49.456 203.242 49.7348 206.038 50.021C209.525 50.3732 213.482 50.9969 215.402 53.9247C216.609 55.7591 216.689 58.0851 216.763 60.2791C216.925 64.9532 214.792 71.4397 218.124 74.727C221.361 77.9189 227.753 77.5814 232.888 78.5719C232.976 78.9608 233.071 79.3424 233.16 79.724C234.131 83.8991 235.116 89.6152 236.58 98.1342C237.537 103.704 238.022 106.484 238.162 107.871C239.045 116.266 238.552 123.823 238.096 128.975C240.457 127.58 242.296 125.68 242.634 123.009C242.965 120.397 241.884 117.065 244.047 115.547C244.797 115.018 245.746 114.908 246.607 114.6C246.908 114.49 247.203 114.358 247.482 114.196C247.548 118.636 247.342 123.523 247.659 125.54C249.991 123.17 251.668 112.105 252.734 108.957C253.801 105.817 253.095 101.81 250.255 100.086C248.468 99.0001 245.915 98.7359 244.393 97.5619C244.716 97.0042 245.158 96.4979 245.65 96.1164C247.048 95.0377 248.814 94.37 249.836 92.9318C250.307 92.2494 250.594 91.4349 251.175 90.8406C252.433 89.5418 254.529 89.7619 256.28 89.307C259.936 88.3531 261.952 84.3834 262.614 80.6779C262.731 80.0028 262.82 79.3204 262.9 78.638C263.43 79.4671 263.982 80.2743 264.534 81.0741C263.871 74.3821 266.792 67.8222 266.836 61.1009H266.821ZM228.776 21.7342C231.041 22.7615 232.917 24.6326 233.939 26.9C234.697 28.573 235.006 30.4294 235.536 32.1831C235.094 31.6768 234.66 31.1558 234.263 30.5982C232.159 27.6337 230.828 23.9796 227.908 21.815C227.473 21.4921 227.025 21.2279 226.561 20.9858C227.319 21.1766 228.062 21.4114 228.776 21.7342ZM227.79 65.7677C227.849 65.2614 228.062 64.7404 228.356 64.2194C229.563 66.9564 230.475 69.6126 231.218 72.1368C228.702 70.8234 227.532 68.1598 227.79 65.7677ZM253.639 43.2703C251.874 42.4192 250.057 41.6047 248.254 40.7462C249.571 40.9076 250.895 41.0103 252.219 41.1204C254.448 41.3112 256.773 41.568 258.649 42.7934C261.841 44.8846 262.68 49.0304 262.283 52.9414C261.51 51.1363 260.936 49.2285 259.774 47.6436C258.259 45.6111 255.927 44.3637 253.639 43.263V43.2703Z" fill="#E83F6F"/>
<path d="M66.6019 254.133C66.6093 255.938 66.9624 257.832 66.2415 259.483C64.8879 262.572 60.6435 263.144 58.4146 265.676C54.4643 270.159 58.6647 277.893 55.428 282.912C52.9784 286.713 46.9905 287.659 45.6444 291.974C44.6145 295.283 46.9758 298.79 46.5197 302.225C45.8062 307.669 39.1048 309.68 35.081 313.422C28.6223 319.431 28.3134 331.172 20.2217 334.701C23.9218 335.31 27.1953 332.126 28.9092 328.794C30.6232 325.463 31.5501 321.64 34.0879 318.881C38.6193 313.957 47.5349 313.202 49.6461 306.855C50.9261 303.01 48.9988 298.431 50.9849 294.894C54.1186 289.31 64.4686 290.528 66.3371 284.401C67.3228 281.18 65.1675 277.951 64.042 274.782C62.9091 271.612 63.8434 266.85 67.2125 266.732C68.2423 266.695 69.2575 267.15 70.2726 266.996C72.1852 266.703 73.1268 264.443 73.0973 262.52C73.0679 260.598 72.4574 258.661 72.8178 256.768C73.6564 252.336 79.0043 250.597 83.4695 249.922C87.942 249.246 93.2604 248.182 94.9376 243.993C95.5629 242.422 95.5187 240.683 95.6585 238.996C96.578 227.828 105.678 217.188 102.073 206.578C96.9605 211.384 95.5114 218.766 93.437 225.45C91.1419 232.839 87.7875 238.079 80.527 240.434C73.6638 242.665 66.5651 245.24 66.6019 254.126V254.133Z" fill="#F58F29"/>
<path d="M176.599 155.97C178.004 156.337 179.372 156.924 180.821 156.931C181.593 156.931 182.358 156.77 183.116 156.645C187.037 155.977 191.046 156.161 195.018 156.021C198.991 155.882 203.073 155.397 206.575 153.519C204.052 154.891 201.823 156.792 200.087 159.074C198.865 160.666 197.88 162.449 196.46 163.865C193.076 167.233 187.927 167.945 183.16 168.304C180.328 168.525 177.452 168.679 174.664 168.143C171.869 167.607 169.132 166.316 167.374 164.093C166.447 162.919 165.822 161.532 164.888 160.365C163.137 158.171 160.474 156.931 157.914 155.772C163.909 158.487 170.316 154.319 176.613 155.97H176.599Z" fill="#E83F6F"/>
<path d="M200.659 156.505C199.099 157.481 197.349 158.149 195.532 158.443C194.333 158.641 193.111 158.677 191.92 158.934C190.566 159.22 189.294 159.771 187.962 160.138C185.491 160.827 182.887 160.871 180.319 160.915C179.407 160.93 178.495 160.945 177.597 160.842C175.486 160.607 173.449 159.749 171.33 159.844C173.743 159.734 176.163 159.727 178.583 159.829C180.04 159.896 181.496 159.991 182.953 159.91C183.924 159.851 184.887 159.719 185.844 159.58C189.97 158.993 194.105 158.406 198.231 157.819" fill="#733F6F"/>
<path d="M188.441 91.9192C189.632 90.4149 191.538 89.6885 193.347 89.0355C198.555 87.1497 203.837 85.2419 209.354 84.7502C210.803 84.6182 212.297 84.5888 213.694 84.9924C214.82 85.3153 215.85 85.9023 216.865 86.4819C222.492 89.7032 228.237 93.0198 232.489 97.9141C230.93 98.3543 229.488 97.0335 228.215 96.0356C223.779 92.5429 217.733 92.0659 212.083 91.9705C211.097 91.9559 210.104 91.9412 209.155 91.677C208.383 91.4642 207.647 91.0753 206.846 91.0093C205.764 90.9212 204.727 91.4202 203.778 91.9412C201.343 93.284 199.048 94.8836 196.503 96.0209C194.627 96.8574 190.986 98.2296 188.948 97.217C187.058 96.2778 187.293 93.3647 188.426 91.9265L188.441 91.9192Z" fill="#462255"/>
<path d="M165.865 95.1111C164.306 94.1425 162.445 93.8343 160.635 93.5114C156.111 92.7043 151.624 91.6844 147.196 90.4443C146.408 90.2242 145.599 89.9967 144.783 90.0554C143.172 90.1801 141.877 91.3835 140.722 92.5135C138.891 94.3186 137.059 96.1237 135.227 97.9361C134.418 98.7359 133.609 99.5357 132.932 100.446C132.226 101.399 131.682 102.463 131.145 103.52C135.646 102.089 139.082 98.1268 143.694 97.1216C147.21 96.3511 150.829 97.4224 154.316 98.3103C157.185 99.0367 160.091 99.6531 163.004 100.174C164.085 100.372 165.211 100.548 166.263 100.233C167.314 99.9172 168.249 98.9413 168.146 97.8554C168.109 97.4811 167.969 97.1436 167.837 96.7987C167.587 96.1603 167.006 95.7274 166.446 95.3312C166.27 95.2064 166.079 95.1257 165.858 95.1184L165.865 95.1111Z" fill="#462255"/>
<path d="M42.416 319.93C43.924 319.175 45.432 318.419 46.94 317.656C46.815 317.502 46.712 317.326 46.609 317.157C44.8877 317.612 43.3355 318.441 42.416 319.923V319.93Z" fill="#F58F29"/>
<path d="M195.158 17.1628C192.179 12.2759 186.448 8.3136 180.512 9.93523C180.041 10.06 179.585 10.2214 179.144 10.4048C177.238 10.148 175.289 10.2067 173.406 10.6323C168.058 11.8504 163.07 15.7467 157.686 14.6974C154.692 14.1104 152.191 12.0558 149.278 11.1386C145.004 9.79581 139.98 11.2633 137.096 14.69C135.404 16.7006 134.448 19.2394 132.756 21.2426C130.38 24.0529 124.252 21.5875 120.942 23.1944C116.396 25.4031 113.777 30.334 109.827 35.4117C105.362 36.4463 100.941 38.9925 99.9845 43.3584C99.8962 43.7693 99.8447 44.1875 99.8079 44.6058C96.689 46.4842 92.8932 48.0618 88.1191 49.1038C90.5245 50.087 95.1074 49.0598 99.6535 47.5262C99.602 48.2159 99.5063 48.9057 99.3004 49.5661C97.6967 54.6511 91.0321 55.5683 86.5596 58.5107C79.7773 62.9793 78.6959 73.9418 84.4631 79.6506C88.9209 84.0532 96.9685 86.5994 96.7257 92.8584C93.9157 92.6163 90.8776 92.4255 88.4722 93.9003C87.1775 94.6928 86.2727 96.1677 86.0447 97.6352C82.3887 98.7652 78.7989 100.079 75.3268 101.671C78.8357 100.042 82.7418 100.159 86.6626 100.482C86.8024 100.673 86.9642 100.849 87.1555 101.011C88.0529 101.752 89.2887 101.979 90.1862 102.72C92.0031 104.217 91.7236 107.189 90.451 109.17C89.171 111.151 87.1849 112.56 85.6916 114.394C78.2693 123.53 85.6474 139.027 78.1295 148.082C75.0767 151.765 69.8613 153.849 68.39 158.406C66.8232 163.278 70.3541 168.921 68.1694 173.558C66.7496 176.589 63.2775 178.159 61.4679 180.984C58.246 186.025 61.0854 193.561 57.2088 198.125C56.0686 199.46 54.4576 200.37 53.4571 201.808C50.169 206.556 55.2888 213.314 53.2438 218.707C52.1404 221.613 49.198 223.432 47.7635 226.184C43.7177 233.933 53.3983 243.024 51.1547 251.47C49.4554 257.876 41.3564 261.61 41.0474 268.244C40.8047 273.498 45.7406 278.861 43.2175 283.499C42.0699 285.612 39.6718 286.735 38.1712 288.62C35.8761 291.482 36.0305 295.503 35.4641 299.128C34.9051 302.753 32.6614 306.862 28.9834 306.862C31.4477 309.504 36.0453 307.764 38.3919 305.02C40.7311 302.269 42.1435 298.644 45.13 296.619C46.4983 295.687 48.1608 295.122 49.2274 293.867C52.3243 290.213 49.6099 282.229 54.3252 281.386C53.6116 286.757 54.6121 292.341 57.1573 297.118C55.7743 297.264 54.3987 297.411 53.0158 297.558C52.1257 301.946 52.4199 306.568 53.8691 310.81C52.0154 309.269 48.9773 309.401 47.2633 311.103C45.6965 312.659 45.4537 315.322 46.6086 317.193C47.7047 316.9 48.8669 316.753 49.9777 316.694C52.8392 316.54 55.9214 316.614 58.2754 314.992C60.6293 313.363 61.3061 309.188 58.7462 307.904C63.307 307.889 69.2875 306.671 69.7509 302.136C70.0084 299.678 68.3312 297.477 67.5588 295.114C65.8448 289.875 69.5082 283.55 74.9149 282.413C78.4752 287.182 69.2581 293.566 71.6709 299.003C72.2667 300.346 73.5172 301.403 74.0248 302.731C72.8258 305.387 71.6194 308.051 70.413 310.707C67.9045 316.225 65.4697 322.939 68.8167 328.002C69.6332 329.22 70.7661 330.291 71.1706 331.707C71.9577 334.408 69.8024 337.181 70.0819 339.977C70.3026 342.171 71.9651 343.91 72.9729 345.869C75.4592 350.697 73.9439 356.523 72.3918 361.726C76.342 357.837 79.1594 352.825 80.4246 347.425C80.8733 345.524 81.1602 343.492 82.3151 341.907C83.47 340.322 85.8681 339.419 87.4276 340.608C89.7227 346.251 88.4722 352.642 87.1849 358.607C85.493 366.422 83.8158 374.237 82.1239 382.059C90.7967 374.611 89.9802 361.087 94.872 350.763C98.8149 342.442 106.531 336.213 109.709 327.569C113.704 327.466 116.462 333.035 113.946 336.139C112.652 337.732 110.261 339.023 110.643 341.041C110.827 342.002 111.644 342.729 111.946 343.668C112.453 345.201 111.497 346.794 110.724 348.21C107.753 353.662 107.135 360.346 109.062 366.253C111.21 362.056 113.358 357.859 115.506 353.647C116.815 351.086 118.161 348.364 118.066 345.48C117.963 342.736 116.734 339.441 118.787 337.614C119.758 336.748 121.148 336.602 122.421 336.323C127.334 335.237 131.572 331.465 133.19 326.703C132.388 333.608 131.344 341.034 126.54 346.089C125.672 347.006 124.657 347.865 124.171 349.024C123.583 350.426 123.84 352.011 124.12 353.5C125.157 359.268 126.187 365.028 127.231 370.781C126.599 365.798 134.021 361.469 131.645 357.044C130.88 355.628 129.173 354.601 129.181 352.987C129.188 350.991 131.675 350.147 133.146 348.789C134.426 347.608 134.992 345.884 135.514 344.218C138.516 334.73 141.517 325.228 144.518 315.733C143.952 319.585 149.749 322.836 151.028 327.099C151.492 328.648 151.323 330.306 151.146 331.927C150.05 341.921 148.954 351.923 147.851 361.917C154.442 353.618 150.889 340.351 157.524 332.096C159.069 330.181 161.128 328.596 162.085 326.321C163.475 323.034 162.18 319.204 162.99 315.733C164.336 309.98 171.243 305.673 169.993 299.906C172.655 301.623 171.758 305.659 170.743 308.674C168.05 316.687 166.874 325.551 169.647 333.534C168.345 328.185 169.559 322.278 172.869 317.883C174.009 316.372 175.399 314.999 176.15 313.253C177.047 311.177 176.929 308.821 177.238 306.576C177.996 301.05 181.394 296.046 182.836 290.675C182.939 290.778 183.028 290.895 183.131 291.005C183.131 290.536 183.116 290.059 183.094 289.589C183.351 288.386 183.498 287.175 183.484 285.913C183.454 284.166 183.086 282.457 182.491 280.806C181.093 268.699 177.378 256.863 171.545 246.143C169.08 241.608 166.182 236.163 168.646 231.614C169.86 229.369 172.236 227.857 173.251 225.509C175.517 220.285 170.103 214.503 171.133 208.911C171.603 206.336 173.369 204.23 174.597 201.918C175.48 200.267 176.083 198.521 176.481 196.723C174.693 196.371 173.369 195.696 172.744 195.381C169.639 193.788 169.338 192.167 165.358 188.806C163.35 187.118 162.055 186.37 160.606 185.394C154.339 181.094 149.771 175.224 146.637 171.188C143.172 166.72 139.671 162.222 136.883 155.405C134.315 149.131 134.963 147.282 131.601 140.678C130.24 137.985 129.093 136.246 128.438 133.047C127.871 130.251 128.077 128.27 128.438 123.581C128.74 119.81 128.879 116.038 129.232 112.267C129.262 111.914 129.299 111.577 129.328 111.247C129.453 111.027 129.585 110.806 129.703 110.579C133.881 102.317 130.152 91.5303 134.904 83.5836C135.912 81.9032 137.258 80.4357 138.207 78.7187C139.435 76.488 139.928 73.9345 140.649 71.4911C142.319 65.8117 145.401 60.3965 150.124 56.8157C154.846 53.2349 161.342 51.7233 166.91 53.7559C168.396 54.2989 169.801 55.0767 171.346 55.4069C176.017 56.4121 181.078 52.3544 181.093 47.5922C184.69 49.2946 189.449 47.9518 191.619 44.6278C193.694 41.4506 193.525 37.4515 193.297 33.6213C193.731 33.6946 194.172 33.79 194.628 33.8928C195.378 34.0762 196.077 34.2817 196.739 34.5018C197.828 28.5656 198.519 22.7468 195.143 17.2069L195.158 17.1628ZM156.479 20.4355C159.039 20.6703 161.099 21.5068 163.056 22.7175C161.687 23.2825 160.231 23.5613 158.635 23.4146C156.163 23.1871 153.949 21.903 151.676 20.8684C153.412 20.5162 155.126 20.3181 156.479 20.4428V20.4355ZM128.1 29.5122C129.379 28.6683 130.733 28.4555 132.116 28.4115C130.248 30.0625 128.305 31.5741 126.158 32.5793C125.841 32.7261 125.525 32.8582 125.201 32.9829C126.143 31.5374 127.106 30.1726 128.1 29.5195V29.5122Z" fill="#F58F29"/>
<path d="M159.569 103.491C157.929 102.808 156.163 102.471 154.398 102.28C152.331 102.067 150.241 102.053 148.189 102.368C146.218 102.676 144.254 103.3 142.665 104.511C141.076 105.721 139.899 107.556 139.811 109.544C140.046 109.574 140.208 109.309 140.296 109.089C140.782 107.879 141.223 106.602 142.113 105.641C142.988 104.694 144.217 104.151 145.445 103.762C150.08 102.28 155.17 102.669 159.687 104.371C160.665 104.738 162.085 105.817 163.085 105.846C162.166 104.789 160.842 104.012 159.562 103.483L159.569 103.491Z" fill="#462255"/>
<path d="M215.373 98.0241C213.71 97.5692 211.967 97.5692 210.246 97.5912C208.465 97.6132 206.693 97.6646 204.912 97.738C203.265 97.804 201.587 97.8994 200.035 98.4497C198.211 99.0954 196.644 100.336 195.357 101.781C194.069 103.227 193.04 104.87 192.01 106.506C194.57 101.986 199.366 98.7872 204.53 98.1635C205.832 98.0021 207.149 98.0021 208.458 98.0095C210.216 98.0241 211.982 98.0755 213.725 98.347C214.593 98.4791 215.454 98.6698 216.292 98.9413C216.866 99.1248 217.55 99.5504 218.161 99.4697C217.594 98.7139 216.263 98.2736 215.373 98.0315V98.0241Z" fill="#462255"/>
<path d="M162.577 109.339C161.628 109.5 160.018 108.29 159.149 107.864C158.252 107.424 157.347 106.976 156.42 106.602C155.604 106.264 154.773 105.978 153.912 105.787C152.728 105.523 151.507 105.457 150.3 105.575C147.343 105.861 144.489 107.233 142.517 109.449C141.958 110.073 141.458 110.77 140.803 111.291C139.935 111.995 138.832 112.355 137.729 112.509C138.95 111.841 140.046 110.946 140.936 109.882C140.002 110.014 139.053 110.043 138.104 109.977C140.472 109.764 142.282 107.901 144.32 106.69C146.578 105.347 149.219 104.797 151.852 104.878C152.838 104.907 153.831 105.024 154.795 105.222C155.111 105.281 155.427 105.354 155.736 105.435C156.494 105.633 157.244 105.875 157.95 106.22C158.701 106.595 159.392 107.079 160.076 107.563C160.908 108.15 161.776 108.715 162.577 109.339Z" fill="black" stroke="black" stroke-width="0.44" stroke-miterlimit="10"/>
<path d="M221.94 103.792C221.006 104.584 219.572 104.423 218.468 103.872C217.372 103.329 216.467 102.471 215.393 101.884C214.246 101.253 212.951 100.959 211.664 100.746C210.84 100.614 210.001 100.512 209.163 100.475C207.927 100.401 206.691 100.438 205.47 100.651C204.617 100.798 203.778 101.033 202.976 101.363C201.851 101.81 200.799 102.441 199.916 103.271C199.092 104.056 198.416 104.988 197.57 105.751C196.709 106.528 195.098 107.783 193.906 107.857C195.238 106.697 196.746 105.846 197.923 104.481C198.401 103.931 198.82 103.322 199.364 102.823C200.431 101.832 202.138 100.754 203.535 100.343C203.859 100.247 204.175 100.167 204.492 100.108C205.617 99.8805 206.691 99.8292 207.824 99.8072C208.376 99.7925 208.949 99.7851 209.545 99.7631C211.679 99.6898 213.863 100.042 215.747 101.047C216.923 101.671 217.975 102.544 219.226 103.014C220.035 103.322 220.903 103.447 221.756 103.571C220.925 103.586 220.094 103.601 219.263 103.615C220.138 103.836 221.05 103.894 221.94 103.792Z" fill="black" stroke="black" stroke-width="0.44" stroke-miterlimit="10"/>
<path d="M89.9603 118.639C88.0164 121.831 87.0524 126.282 83.4878 127.391C80.9856 128.166 78.0917 126.863 75.7369 128.003C73.6828 129.001 72.8458 131.547 72.9111 133.83C72.9765 136.112 73.7202 138.325 73.8944 140.601C74.2749 145.537 71.7367 150.597 67.5522 153.247C61.9407 156.799 53.5364 156.573 50.3074 162.375C48.0375 166.463 49.6214 171.501 49.6433 176.169C49.6664 182.838 46.3864 189.023 43.1958 194.883C40.5871 199.674 36.9226 205.118 31.4627 205.07C35.8193 201.019 40.2398 196.88 43.1812 191.717C46.1225 186.549 47.4053 180.096 45.1235 174.611C44.0402 172.009 42.189 169.644 41.9122 166.837C41.4743 162.342 45.2741 158.477 49.3439 156.499C53.4136 154.521 58.0089 153.693 61.8672 151.325C66.2629 148.624 69.3838 143.948 70.1937 138.851C70.8952 134.413 70.2137 129.106 73.63 126.188C75.1654 124.882 77.2198 124.395 78.973 123.397C82.7098 121.271 84.7108 117.088 87.8071 114.113C92.2851 109.807 99.2483 108.294 105.106 110.356C106.681 110.911 108.442 112.445 107.662 113.91C101.132 112.238 93.9762 112.057 89.9731 118.626L89.9603 118.639Z" fill="#F58F29"/>
<path d="M96.0796 74.8266C94.4737 75.9402 92.112 76.2485 91.7549 78.685C91.5063 80.3925 92.4228 82.5533 91.9629 84.1266C91.5605 85.5017 90.2293 85.8797 88.981 85.6439C87.7327 85.408 86.4714 84.6989 85.2167 84.3863C82.4959 83.7037 79.9108 85.08 78.7603 87.8303C77.2134 91.5081 77.9274 97.4802 74.9841 99.2851C72.911 100.552 70.0553 99.013 67.5012 98.6053C63.8588 98.0319 60.7107 99.837 57.7354 101.616C55.3039 103.069 52.5912 105.207 52.9967 109.075C54.9026 106.331 56.8532 103.542 59.4637 101.89C62.0743 100.239 65.5113 99.8661 68.6681 101.936C70.1664 102.92 71.5883 104.428 73.1375 104.856C75.6214 105.545 77.4634 103.172 78.2555 100.453C79.0477 97.7353 79.1802 94.5507 80.2029 92.0179C81.3661 89.1269 83.7014 87.3095 86.428 87.1608C88.8026 87.0316 91.7475 87.9571 93.0968 85.7822C93.7043 84.8034 93.8251 83.3902 94.2469 82.2325C95.1416 79.7637 97.2852 78.6946 98.6986 76.7498C100.732 73.935 101.075 69.1325 99.5366 64.8107C99.1263 63.6535 98.1654 62.2729 97.4167 62.7081C98.7829 67.4713 99.3875 72.5546 96.0796 74.8458L96.0796 74.8266Z" fill="#F58F29"/>
<path d="M50.7934 206.114C50.7241 207.904 51.1092 209.79 50.2972 211.428C48.6925 214.683 43.7768 214.776 40.9875 217.214C36.989 220.708 38.5997 227.709 34.4219 231.004C32.7905 232.29 30.5313 232.746 29.0855 234.217C26.5395 236.809 27.7006 241.092 25.8653 244.169C22.7768 249.35 13.8852 247.866 9.72094 252.332C14.118 251.913 18.4958 251.265 22.8286 250.374C26.8542 249.546 31.6025 247.791 32.3748 243.935C32.6492 242.567 32.3411 241.134 32.7692 239.798C34.0918 235.672 40.8893 235.496 42.9673 231.645C44.7448 228.351 42.2394 223.761 44.8942 221.035C46.6086 219.276 49.7577 219.261 51.2416 217.323C52.5336 215.634 51.9561 213.313 52.531 211.318C53.5276 207.864 57.5335 206.174 60.6302 204.106C63.727 202.039 66.2463 197.523 63.5182 195.203C59.9704 192.187 50.8879 203.466 50.787 206.107L50.7934 206.114Z" fill="#F58F29"/>
<path d="M267.495 110.922C266.543 108.889 264.247 107.407 265.521 104.464C266.412 102.405 268.853 100.383 269.432 98.3681C269.935 96.6157 268.78 95.5421 267.294 95.2169C265.808 94.8852 263.985 95.0909 262.441 94.8488C259.087 94.3264 257.28 91.5202 257.916 87.843C258.768 82.9123 263.572 76.451 261.676 72.9991C260.336 70.5636 256.248 70.956 253.27 70.1904C249.009 69.0994 246.897 65.5388 244.937 62.0997C243.335 59.2871 241.904 55.5535 244.969 51.3377C245.131 55.379 245.312 59.4841 246.965 62.6165C248.618 65.7489 252.012 67.8123 256.775 66.9591C259.032 66.5549 261.563 65.5175 263.502 65.7658C266.608 66.1733 266.954 69.754 265.955 73.2268C264.956 76.6996 262.93 80.3905 262.301 83.7671C261.583 87.6107 262.822 90.8072 265.615 92.2699C268.052 93.5474 271.808 93.9034 271.766 97.0303C271.747 98.4307 270.913 100.1 270.576 101.622C269.857 104.865 271.408 107.102 271.582 109.992C271.839 114.168 268.935 119.803 264.371 123.988C263.148 125.114 261.19 126.221 260.693 125.371C265.377 120.598 269.461 115.096 267.507 110.915L267.495 110.922Z" fill="#E83F6F"/>
<path d="M286.578 82.0969C285.168 80.7549 284.376 78.5108 281.928 78.6657C280.212 78.7754 278.287 80.113 276.661 79.986C275.239 79.8782 274.594 78.6508 274.568 77.3783C274.542 76.1058 274.975 74.7307 275.025 73.439C275.132 70.6381 273.262 68.3947 270.341 67.8337C266.431 67.0814 260.751 69.0031 258.39 66.4978C256.724 64.7339 257.647 61.6192 257.518 59.0423C257.331 55.3591 254.919 52.662 252.584 50.1183C250.669 48.0412 248.022 45.8239 244.33 47.0218C247.398 48.3181 250.524 49.6527 252.668 51.8704C254.818 54.0881 255.885 57.3614 254.509 60.8792C253.854 62.5422 252.675 64.2438 252.574 65.8489C252.416 68.4196 255.108 69.7353 257.92 69.9511C260.732 70.1669 263.876 69.6407 266.554 70.1188C269.609 70.6669 271.868 72.5712 272.571 75.2053C273.184 77.5006 272.88 80.5701 275.285 81.4448C276.362 81.8342 277.772 81.6608 278.983 81.8391C281.579 82.2085 283.059 84.0876 285.247 85.0583C288.411 86.4697 293.168 85.8147 297.075 83.4209C298.121 82.7808 299.268 81.5588 298.694 80.9133C294.321 83.2306 289.488 84.864 286.578 82.1033L286.578 82.0969Z" fill="#E83F6F"/>
</svg>
