<?xml version="1.0" encoding="UTF-8"?>
<svg id="Layer_1" data-name="Layer 1" xmlns="http://www.w3.org/2000/svg" viewBox="0 0 300 300">
  <defs>
    <style>
      .cls-1 {
        fill: #462255;
        stroke-width: 0px;
      }
    </style>
  </defs>
  <path class="cls-1" d="m45.66,166.95c34.54,4.29,69.22,5.52,102.32,5.78,2.43.02,3.17,1,3.17,3.02v48.42c0,2.09-.42,2.37-2.01,2.43-20.94.84-41.57.83-61.6-1.32-1.56-.17-2.5-.3-2.7,1.67l-.42,3.93c-.06.6-.79.75-1.13.17-.82-1.43-1.96-3.4-2.44-2.24-.72,1.73-.96,2-2.99,1.73-2.04-.27-3.19-.86-5.56.24-1.17.54-2.71-1.36-4.42.06-1.23,1.03-2.59-.03-2.8-1.62-.2-1.6-.24-3.13-1.56-3.49-1.32-.38-2.1-.75-2.17-3.54-.03-1.47-.49-4.12-1.55-5.91-2.55-4.31-7.35-.15-6.8-5.41.39-3.7,3.5-9.64,1.01-10.75-2.49-1.1-4.82-7.23-7.2-9.2-2.37-1.97-2.91-3.33-2.84-5.37.06-2.03-.57-3.28-1.09-4.21-.63-1.11-.69-1.92-.55-3.13l1.17-9.74c.11-.97.88-1.69,2.15-1.53Z"/>
  <path class="cls-1" d="m150.02,52.82l3.36-3.08,4.37,4.27s1.35,12.67,3.08,13.93c0,0,0,.85.63,1.34.63.48,1.11,2.02,6.06,3.97,0,0,2.29.68,3.47,3.89.66,1.79,1.71,2.66,2.52,3.08.45.23.49.86.09,1.16l-.66.49s4.13,7.82,4.21,7.9-2.94-.33-2.94-.33c0,0,1.82,1.38,2.95,2.23,1.13.85.71,2.09,1.27,2.78.55.69,1.24,2.03,1.24,2.58v2.13l-3.34,3.3,3.89,2.5,1.54-3.67s5.25-.29,5.65-.18c.4.11,3.27.62,3.6.62s4,3.45,4,3.45c0,0,.88,4.18.55,5.73-.33,1.54-1.3,5.76-1.3,5.76l-4.02,4.24,1.05.34-1.87,1.86h-2.53l.41.69.03,2.2-1.49,2.07-1.59.2c-.17.02-.19.26-.03.31.96.28,2.59.94,4.1,2.34l4.04-.87c.32-.07.59.24.47.55-.09.24-.19.51-.31.76-.3.66.72,2.47.61,2.91-.11.44-2.38,1.69-3.15,1.73-.77.04-2.24,1.39-1.76,2.97,0,0-1.43-.51-1.87-.4-.44.11-1.36,1.65-2.94,1.54-1.58-.11-3.45,2.53-3.45,2.53l-5.21-1.62-6.2.88-.51,1.18-1.61-1.03-2.72.04-1.63-1.18c-.21-.16-.53-.02-.54.24-.03.54-.35,1.18-1.72,1.17,0,0-.77-.09-1.1,1.06-.33,1.16-.69-.94-1.69-.32-1,.62-2.04.51-2.49.51s-.11,1.64-.11,1.64c0,0-6.73-1.32-5.85.41.88,1.73-3.19-2.78-5.09-2.53s-2.01.8-2.76.78c-.75-.02-1.82.17-2.2.81-.39.64-1.49.4-1.72.66s-.84.86-.62,1.74c.22.88-.49.59-.77,1.16s.79.49.81.92c.02.42,0,1.1-1.74,1.45l-.11,1.58s-2.77.3-3.15-1.54c0,0-.48-.33-1.28-.33s-1.06.02-1.03-.53c.04-.55-.82,1.21-1.41.37s-.72-1.03-2.68-.9c0,0-.64,1.32-2.7.53,0,0-.79-.2-1.21,1.83,0,0-.06.88-1.89.52,0,0-.06,1.41-1.86,1.56-1.8.15.53,1.12.53,1.12l-1.77,1.63s-.74-3-3.25-3.22c0,0-1.36,2.44-2.62.95-1.27-1.49,2.54-3.62,3-2.65.46.97,5.08-4.08,5.08-4.08l.07-2.02s3.14.07,3.38-2.13l2.61-1.85s-1.06-4.02,1.29-4.08c0,0,1.47.94,2.09.04.62-.89-.01-1.89.21-2.64.22-.76,3.33-.96,6.12-1.16,2.79-.19,2.64.91,3.62.91s4.51-.14,4.69-.56c.18-.43-.33-1.78.08-2.23.36-.39,3.57-4.11,4.43-5.1.08-.09.05-.23-.05-.28-.12-.06-.25-.22-.29-.56-.07-.72.06-2.87.06-2.92s-2.88-2.5-3.44-1.6c-.56.9-1.93-3.29-1.93-3.29l1.79-4.96-3.08-1.4,2.44-1.69-1.25-.55,1.75-3.6s-2.89-.5-1.32-2.53,3.16-.94,3.33-.15c.16.78,1.43-.45,1.07-1.28s-1.53-.59-1.51-.64.61-1.95-1.36-2.55l.83-.81-2.22-1.91-.88-1.87,1.74-.82-.7-2.06s1.76-2,1.68-2.69c-.08-.69-.99-.91-.99-1.49s.14-2.67.14-2.67l1.84-.96-.8-1.51,1.49-.94s-.63-1.05-.63-1.27-1.07.88-1.07.88l-.77-1.13-1.43,2.18-1.02-1.21.47-.85c.1-.18-.08-.39-.27-.31l-.87.33-3.34-6s.73-1.87.92-3.01c.18-1.14,1.98-1.36,2.13-4,0,0,3-1.5,3.52-1.74.52-.25,9.13-8.79,9.13-8.79l-1.79-3.13"/>
  <path class="cls-1" d="m195.11,155.52l-.2,1.69-3.97,8.32-.34,1.65c-.8.78-1.27,1.33-1.4,1.66-1.26,4.55-2.45,7.52-3.57,8.89l-.79,3.74-2.78,2.23-.45,2.34c-.86,1.39-1.57,3.09-2.15,5.11-.2.66-.55,2.62-1.05,5.87-.1.31-.74,1.09-1.91,2.32-.25,1.32-.17,2.39.26,3.21l-.77,1.92c.45.32,1.06,1.36,1.81,3.12l1.57.85c-.4,1.17,0,2.2,1.18,3.1-.53,1.6-.68,2.68-.47,3.25l4.39,6.15c-.02.84.44,2.17,1.36,3.98.13,1.96.28,3.12.47,3.48.63.27,1.46,1.76,2.48,4.45,1.69,1.79,2.51,2.72,2.45,2.81-.01,3.6-.58,5.86-1.71,6.79.75,3.9.98,6.11.69,6.65l4.36.42c1.41.83,3.41,1.62,5.99,2.35,1.57.54,5.75,1.42,12.52,2.65-.52-.8-.72-1.44-.61-1.92l1.2-3.81c.62-2.86.85-4.61.69-5.23l1.59-4.51c-.32-1.22,1.19-8.04,4.54-20.44.27-1.38.44-2.98.51-4.81l2.72-7.02c.77-3.08,1.27-5.73,1.49-7.94l2.19-5.93c.64-2.99,1.03-6.01,1.15-9.06l2.24-7.86c.05-.38-.04-.56-.24-.52-.92,1.33-2.04,2.07-3.35,2.24-.89.29-1.33-.14-1.31-1.31.11-.37.45-.84,1.02-1.39,1.33-.51,3-1.71,5-3.59l.72-3.79-1.61-.81-10.27-1.3c-.64-.16-1.71-.94-3.2-2.35l-11.7-2.64-10.74-5.02"/>
</svg>