<svg width="376" height="206" viewBox="0 0 376 206" fill="none" xmlns="http://www.w3.org/2000/svg">
<path d="M156.505 67.7106C156.505 79.7314 153.342 91.0171 147.803 100.78C136.226 121.19 114.266 134.964 89.0825 134.964C87.4344 134.964 85.7985 134.904 84.1827 134.786C49.2325 132.286 21.6602 103.208 21.6602 67.7106C21.6602 32.2136 51.8443 0.457031 89.0825 0.457031C126.321 0.457031 156.505 30.5656 156.505 67.7106Z" fill="#462255"/>
<path d="M147.803 100.78C136.225 121.191 114.266 134.964 89.0824 134.964C87.4343 134.964 85.7983 134.904 84.1826 134.787C84.2515 134.072 84.3243 133.337 84.3972 132.581C85.7497 118.791 86.8552 114.7 88.969 110.43C91.1597 106.007 93.5772 103.111 95.286 101.091C105.389 89.1351 120.72 81.1091 123.806 84.1507C124.6 84.9262 123.757 85.6169 124.025 92.621C124.231 97.9892 124.818 99.9967 126.203 101.524C126.446 101.79 127.507 102.921 129.686 103.697C134.743 105.494 139.271 103.046 144.709 101.524C145.341 101.346 146.414 101.063 147.803 100.78Z" fill="#DADFF7"/>
<path d="M110.816 15.0154C114.42 17.2248 118.449 19.6928 121.992 24.5722C125.714 29.694 126.88 34.6906 127.799 38.6167C128.334 40.911 128.876 44.0616 129.686 48.7512C130.213 51.8129 130.476 53.3479 130.557 54.1072C131.108 59.3865 130.678 64.064 130.411 66.847C130.367 67.3156 130.387 67.0571 130.12 69.5978C129.569 74.8609 129.476 76.0081 129.395 76.6907C128.743 82.0629 125.26 86.5222 123.442 88.8529C122.231 90.404 119.777 93.5505 116.331 95.659C115.432 96.2084 114.542 96.6406 113.282 97.6867C111.565 99.1166 111.27 99.9366 109.508 101.015C108.18 101.831 107.127 102.114 106.896 102.174C106.026 102.396 105.349 102.421 103.993 102.465C102.057 102.526 101.98 102.352 100.656 102.465C99.004 102.607 98.8785 102.901 97.7528 102.901C96.1289 102.897 94.8939 102.279 94.4161 102.033C92.7072 101.156 92.5452 100.26 90.3505 98.4138C89.249 97.4848 88.5323 97.0768 87.7386 96.5315C84.2845 94.1685 81.7739 90.9371 80.0448 88.7115C78.1375 86.2597 76.21 83.7796 74.6753 80.0231C73.262 76.5695 73.6184 75.5516 71.7719 71.9163C71.0187 70.4339 70.387 69.4766 70.0306 67.7155C69.7148 66.1765 69.8282 65.0819 70.0306 62.5048C70.1926 60.4327 70.2736 58.3485 70.468 56.2804C71.1645 48.8077 70.966 49.765 71.3386 46.2913C72.0067 40.0668 72.3266 36.9525 72.934 34.7067C74.9911 27.121 78.8462 22.3345 79.7573 21.2399C81.8549 18.7153 83.5961 16.6189 86.7263 15.0154C88.9291 13.8844 93.2255 13.537 101.822 12.8422C102.774 12.7655 104.422 12.6443 106.467 13.1331C108.245 13.5572 109.597 14.2641 110.82 15.0154H110.816Z" fill="#DADFF7" stroke="#462255" stroke-miterlimit="10"/>
<path d="M146.329 28.3687C146.349 25.5978 145.479 22.9036 144.62 20.27C144.053 18.5291 143.405 16.671 141.931 15.5764C140.919 14.8251 139.647 14.5342 138.42 14.2394C136.663 13.8153 134.893 13.3346 133.339 12.4177C131.784 11.5008 130.443 10.087 129.986 8.34611C129.771 7.52614 129.755 6.6577 129.5 5.84985C129.07 4.47247 127.933 3.34148 126.552 2.91735C124.418 2.263 121.992 3.24453 119.915 2.42861C118.979 2.06103 118.218 1.36628 117.327 0.905807C115.388 -0.0959273 112.974 0.130271 111.014 1.09565C110.188 0.796748 109.334 0.671531 108.431 0.865415C106.835 1.21279 105.596 2.54574 104.96 4.04835C104.321 5.54287 104.187 7.20704 104.098 8.83082C104.09 8.96815 104.09 9.10549 104.082 9.24686C103.422 10.9353 103.142 12.7166 103.571 14.4615C103.669 14.8493 103.798 15.2209 103.944 15.5885C103.956 17.4627 104.013 19.3369 104.122 21.2111C104.693 21.3242 105.317 21.4171 105.965 21.5141C106.503 21.8009 107.24 21.6999 108.257 21.8009C109.795 21.9584 111.33 22.1119 112.869 22.2694C114.788 22.4633 116.967 22.8066 118.024 24.4183C118.688 25.4281 118.732 26.7086 118.773 27.9163C118.862 30.4893 117.688 34.06 119.522 35.8696C121.304 37.6266 124.823 37.4408 127.649 37.9861C127.698 38.2002 127.75 38.4103 127.799 38.6203C128.333 40.9186 128.876 44.0652 129.682 48.7548C130.208 51.8206 130.476 53.3515 130.553 54.1149C131.038 58.7358 130.767 62.8962 130.516 65.7318C131.816 64.9643 132.828 63.9181 133.015 62.4479C133.197 61.0099 132.602 59.1761 133.792 58.3399C134.205 58.0491 134.727 57.9885 135.201 57.8189C135.367 57.7583 135.529 57.6856 135.683 57.5967C135.72 60.0405 135.606 62.7306 135.78 63.8414C137.064 62.5367 137.987 56.4455 138.574 54.7127C139.162 52.9839 138.773 50.7785 137.21 49.8292C136.226 49.2314 134.821 49.086 133.982 48.4397C134.161 48.1327 134.403 47.854 134.675 47.644C135.444 47.0502 136.416 46.6827 136.979 45.891C137.238 45.5153 137.396 45.067 137.716 44.7398C138.408 44.0248 139.562 44.146 140.526 43.8956C142.539 43.3705 143.648 41.1852 144.013 39.1454C144.077 38.7738 144.126 38.3981 144.171 38.0225C144.462 38.4789 144.766 38.9232 145.07 39.3635C144.705 35.6797 146.313 32.0686 146.337 28.3687H146.329ZM125.386 6.6981C126.633 7.26359 127.665 8.2936 128.228 9.54173C128.645 10.4627 128.815 11.4846 129.107 12.45C128.864 12.1713 128.625 11.8845 128.406 11.5775C127.248 9.94565 126.515 7.93411 124.908 6.74253C124.669 6.5648 124.422 6.41939 124.167 6.28609C124.584 6.39111 124.993 6.52037 125.386 6.6981ZM124.843 30.9376C124.875 30.6589 124.993 30.3721 125.155 30.0854C125.819 31.592 126.321 33.0542 126.73 34.4437C125.345 33.7207 124.701 32.2544 124.843 30.9376ZM139.072 18.5533C138.101 18.0847 137.1 17.6364 136.108 17.1638C136.833 17.2527 137.562 17.3092 138.291 17.3698C139.518 17.4748 140.797 17.6162 141.83 18.2907C143.588 19.4419 144.049 21.7241 143.83 23.877C143.405 22.8834 143.089 21.8332 142.45 20.9607C141.615 19.8418 140.332 19.1551 139.072 18.5493V18.5533Z" fill="#E83F6F"/>
<path d="M36.1125 134.63C36.1165 135.623 36.3109 136.665 35.914 137.574C35.169 139.275 32.8325 139.59 31.6055 140.983C29.431 143.451 31.7432 147.709 29.9614 150.472C28.613 152.564 25.3168 153.085 24.5757 155.46C24.0088 157.282 25.3087 159.212 25.0576 161.103C24.6648 164.1 20.9758 165.207 18.7608 167.267C15.2055 170.575 15.0354 177.038 10.5811 178.981C12.6179 179.316 14.4199 177.563 15.3634 175.729C16.3069 173.895 16.8171 171.791 18.2142 170.272C20.7086 167.562 25.6164 167.146 26.7786 163.652C27.4832 161.535 26.4223 159.015 27.5156 157.068C29.2406 153.994 34.9381 154.664 35.9667 151.291C36.5093 149.518 35.3228 147.741 34.7033 145.996C34.0797 144.251 34.5939 141.63 36.4486 141.565C37.0155 141.545 37.5743 141.795 38.1331 141.71C39.186 141.549 39.7043 140.305 39.6881 139.246C39.6719 138.188 39.3358 137.122 39.5342 136.08C39.9958 133.64 42.9397 132.683 45.3977 132.311C47.8597 131.939 50.7875 131.354 51.7107 129.047C52.0549 128.183 52.0306 127.226 52.1076 126.297C52.6137 120.149 57.6228 114.292 55.6386 108.451C52.8243 111.097 52.0266 115.16 50.8846 118.84C49.6212 122.908 47.7747 125.792 43.778 127.088C39.9999 128.316 36.0922 129.734 36.1125 134.626V134.63Z" fill="#F58F29"/>
<path d="M96.6634 80.5923C97.4368 80.7942 98.19 81.1174 98.9877 81.1214C99.4129 81.1214 99.8341 81.0326 100.251 80.9639C102.409 80.5963 104.616 80.6973 106.803 80.6206C108.99 80.5438 111.237 80.2772 113.165 79.2432C111.776 79.9985 110.549 81.0447 109.593 82.3009C108.921 83.1774 108.378 84.1589 107.597 84.9385C105.734 86.7925 102.899 87.1843 100.275 87.3823C98.7164 87.5034 97.1331 87.5883 95.5984 87.2934C94.0596 86.9985 92.5533 86.2876 91.5854 85.0637C91.0752 84.4174 90.731 83.654 90.2168 83.0118C89.253 81.8041 87.7871 81.1214 86.3779 80.4832C89.6782 81.9777 93.2052 79.6834 96.6715 80.5923H96.6634Z" fill="#E83F6F"/>
<path d="M109.909 80.8877C109.05 81.4249 108.086 81.7925 107.086 81.9541C106.426 82.0631 105.754 82.0833 105.098 82.2247C104.353 82.3822 103.652 82.6852 102.919 82.8871C101.559 83.2668 100.125 83.2911 98.712 83.3153C98.2099 83.3234 97.7078 83.3314 97.2137 83.2749C96.0516 83.1456 94.9299 82.673 93.7637 82.7256C95.0919 82.665 96.4241 82.6609 97.7564 82.7175C98.5582 82.7538 99.3599 82.8063 100.162 82.7619C100.696 82.7296 101.227 82.6569 101.753 82.5801C104.025 82.257 106.301 81.9339 108.572 81.6107" fill="#733F6F"/>
<path d="M103.182 45.3337C103.838 44.5057 104.887 44.1058 105.883 43.7463C108.75 42.7082 111.658 41.658 114.695 41.3874C115.492 41.3146 116.314 41.2985 117.084 41.5206C117.703 41.6984 118.27 42.0215 118.829 42.3406C121.927 44.1138 125.089 45.9396 127.43 48.6338C126.572 48.8761 125.778 48.1491 125.077 47.5997C122.636 45.677 119.307 45.4145 116.197 45.362C115.654 45.3539 115.108 45.3458 114.585 45.2004C114.16 45.0833 113.755 44.8692 113.314 44.8328C112.719 44.7844 112.148 45.059 111.625 45.3458C110.285 46.085 109.021 46.9656 107.62 47.5916C106.588 48.0521 104.583 48.8075 103.462 48.25C102.421 47.733 102.551 46.1294 103.174 45.3377L103.182 45.3337Z" fill="#462255"/>
<path d="M90.7547 47.0909C89.8963 46.5578 88.8718 46.3881 87.8756 46.2104C85.3852 45.7661 82.9151 45.2046 80.4774 44.522C80.0441 44.4008 79.5987 44.2756 79.1492 44.3079C78.2624 44.3766 77.5497 45.039 76.9139 45.661C75.9056 46.6547 74.8973 47.6484 73.889 48.6461C73.4436 49.0863 72.9982 49.5266 72.6256 50.0275C72.2369 50.5526 71.9372 51.1383 71.6416 51.7199C74.1198 50.9323 76.0109 48.7511 78.5499 48.1977C80.4855 47.7736 82.4778 48.3633 84.3972 48.8521C85.9764 49.2519 87.576 49.5912 89.1795 49.878C89.7748 49.9871 90.3943 50.084 90.9734 49.9103C91.5525 49.7367 92.0667 49.1994 92.01 48.6016C91.9898 48.3956 91.9129 48.2098 91.84 48.02C91.7023 47.6686 91.3824 47.4302 91.0746 47.2121C90.9774 47.1434 90.8722 47.099 90.7507 47.095L90.7547 47.0909Z" fill="#462255"/>
<path d="M22.7988 170.85C23.629 170.434 24.4591 170.018 25.2892 169.598C25.2204 169.513 25.1637 169.416 25.107 169.323C24.1594 169.574 23.305 170.03 22.7988 170.846V170.85Z" fill="#F58F29"/>
<path d="M106.88 4.18176C105.24 1.49162 102.086 -0.689578 98.8177 0.203097C98.5585 0.271764 98.3075 0.360627 98.0645 0.461609C97.0157 0.320235 95.9426 0.352549 94.906 0.586825C91.9621 1.25734 89.2166 3.40218 86.2524 2.82457C84.6043 2.50143 83.2275 1.37044 81.624 0.865534C79.2713 0.126351 76.5055 0.934201 74.9182 2.82053C73.9868 3.92729 73.4604 5.32487 72.529 6.42758C71.2211 7.97462 67.848 6.61743 66.0257 7.50202C63.5232 8.71784 62.0816 11.4322 59.9071 14.2274C57.4491 14.7969 55.0154 16.1985 54.489 18.6019C54.4404 18.8281 54.4121 19.0583 54.3918 19.2886C52.6749 20.3226 50.5854 21.191 47.9573 21.7646C49.2815 22.3059 51.8043 21.7404 54.3068 20.8962C54.2784 21.2759 54.2258 21.6556 54.1124 22.0191C53.2297 24.8183 49.5609 25.3232 47.0989 26.9429C43.3653 29.4028 42.7701 35.4375 45.9448 38.58C48.3987 41.0036 52.8288 42.4052 52.6951 45.8507C51.1483 45.7174 49.4759 45.6124 48.1517 46.4243C47.439 46.8605 46.9409 47.6724 46.8154 48.4802C44.8029 49.1023 42.8268 49.8253 40.9155 50.7018C42.847 49.8051 44.9972 49.8697 47.1556 50.0475C47.2325 50.1525 47.3216 50.2494 47.4269 50.3383C47.9209 50.7463 48.6012 50.8715 49.0952 51.2794C50.0954 52.1034 49.9415 53.7393 49.241 54.8299C48.5364 55.9205 47.4431 56.6961 46.621 57.7059C42.5352 62.7348 46.5967 71.2657 42.4583 76.2501C40.7778 78.2778 37.9068 79.4249 37.0969 81.9333C36.2344 84.6154 38.1781 87.7216 36.9754 90.2744C36.1939 91.9426 34.2826 92.807 33.2864 94.3621C31.5128 97.1371 33.0758 101.285 30.9418 103.798C30.3141 104.533 29.4273 105.034 28.8766 105.825C27.0665 108.439 29.8849 112.159 28.7592 115.128C28.1518 116.727 26.532 117.729 25.7424 119.244C23.5152 123.509 28.8442 128.514 27.6092 133.163C26.6737 136.689 22.2154 138.745 22.0453 142.397C21.9117 145.289 24.6288 148.242 23.2399 150.794C22.6082 151.958 21.2881 152.576 20.462 153.614C19.1986 155.189 19.2836 157.403 18.9718 159.398C18.6641 161.393 17.429 163.655 15.4043 163.655C16.7608 165.11 19.2917 164.152 20.5835 162.642C21.8712 161.127 22.6487 159.131 24.2927 158.017C25.0459 157.504 25.9611 157.193 26.5482 156.502C28.253 154.49 26.7588 150.096 29.3544 149.631C28.9617 152.588 29.5124 155.662 30.9135 158.291C30.1522 158.372 29.3949 158.453 28.6337 158.534C28.1437 160.949 28.3057 163.494 29.1034 165.829C28.0829 164.98 26.4105 165.053 25.467 165.99C24.6045 166.846 24.4709 168.313 25.1066 169.343C25.71 169.181 26.3498 169.1 26.9613 169.068C28.5365 168.983 30.2332 169.024 31.529 168.131C32.8248 167.234 33.1973 164.936 31.7881 164.229C34.2988 164.221 37.5909 163.55 37.846 161.054C37.9877 159.701 37.0645 158.489 36.6393 157.189C35.6958 154.305 37.7124 150.823 40.6887 150.197C42.6486 152.822 37.5747 156.336 38.9029 159.329C39.2309 160.069 39.9193 160.65 40.1987 161.381C39.5387 162.844 38.8746 164.31 38.2105 165.772C36.8296 168.81 35.4893 172.505 37.3317 175.293C37.7812 175.963 38.4048 176.553 38.6275 177.332C39.0608 178.819 37.8744 180.346 38.0282 181.885C38.1497 183.092 39.0649 184.05 39.6196 185.128C40.9883 187.786 40.1542 190.993 39.2997 193.857C41.4743 191.716 43.0252 188.957 43.7217 185.984C43.9687 184.938 44.1266 183.819 44.7624 182.947C45.3981 182.074 46.7182 181.578 47.5767 182.232C48.8401 185.338 48.1517 188.856 47.4431 192.14C46.5117 196.442 45.5885 200.744 44.6571 205.05C49.4313 200.95 48.9818 193.506 51.6747 187.822C53.8452 183.242 58.093 179.812 59.8423 175.054C62.0411 174.998 63.5596 178.063 62.1748 179.772C61.4621 180.649 60.146 181.359 60.3566 182.47C60.4578 182.999 60.9073 183.399 61.0733 183.916C61.3527 184.761 60.8263 185.637 60.4011 186.417C58.7652 189.418 58.425 193.098 59.486 196.349C60.6684 194.039 61.8508 191.728 63.0332 189.41C63.754 188 64.4951 186.501 64.4424 184.914C64.3857 183.403 63.7095 181.59 64.8393 180.584C65.3738 180.107 66.1391 180.027 66.8397 179.873C69.5446 179.275 71.8771 177.199 72.768 174.578C72.3266 178.379 71.7516 182.466 69.1073 185.249C68.6295 185.754 68.0707 186.227 67.8034 186.865C67.4795 187.636 67.6212 188.509 67.7751 189.329C68.346 192.504 68.9129 195.675 69.488 198.841C69.1397 196.099 73.2255 193.716 71.9176 191.28C71.4964 190.5 70.557 189.935 70.561 189.046C70.5651 187.948 71.9338 187.483 72.7437 186.736C73.4483 186.085 73.7601 185.136 74.0476 184.219C75.6997 178.997 77.3519 173.766 79.004 168.539C78.6922 170.66 81.8831 172.449 82.5877 174.796C82.8428 175.648 82.7497 176.561 82.6525 177.454C82.0492 182.955 81.4458 188.461 80.8384 193.962C84.4666 189.394 82.5108 182.091 86.1633 177.546C87.0137 176.492 88.1475 175.62 88.674 174.368C89.4393 172.558 88.7266 170.449 89.172 168.539C89.9131 165.372 93.7155 163.001 93.0271 159.826C94.4929 160.771 93.9989 162.993 93.4401 164.653C91.958 169.064 91.3101 173.943 92.8367 178.338C92.12 175.394 92.7881 172.142 94.6104 169.722C95.238 168.89 96.0034 168.135 96.4164 167.174C96.9104 166.031 96.8456 164.734 97.0157 163.498C97.4328 160.456 99.3036 157.702 100.097 154.745C100.154 154.801 100.203 154.866 100.259 154.927C100.259 154.668 100.251 154.406 100.239 154.147C100.381 153.485 100.462 152.818 100.454 152.123C100.437 151.162 100.235 150.221 99.907 149.312C99.1376 142.647 97.0926 136.132 93.8815 130.231C92.5249 127.734 90.9295 124.737 92.286 122.233C92.9542 120.997 94.2621 120.165 94.8209 118.872C96.0681 115.996 93.0878 112.813 93.6547 109.735C93.9139 108.318 94.8857 107.158 95.562 105.886C96.0479 104.977 96.38 104.016 96.5986 103.026C95.6146 102.832 94.8857 102.461 94.5415 102.287C92.8327 101.411 92.6667 100.518 90.4759 98.6679C89.3705 97.7389 88.6578 97.3269 87.86 96.7897C84.41 94.4227 81.8953 91.1913 80.1702 88.9697C78.263 86.5098 76.3355 84.0337 74.8008 80.2813C73.3875 76.8277 73.7439 75.8098 71.8933 72.1745C71.1442 70.6921 70.5125 69.7348 70.1521 67.9737C69.8403 66.4347 69.9536 65.3441 70.1521 62.763C70.3181 60.6869 70.395 58.6107 70.5894 56.5345C70.6056 56.3406 70.6258 56.1548 70.642 55.973C70.7109 55.8519 70.7838 55.7307 70.8486 55.6055C73.1486 51.0573 71.0956 45.1196 73.7115 40.7451C74.2662 39.8201 75.0073 39.0122 75.5296 38.067C76.2059 36.8391 76.4772 35.4335 76.874 34.0884C77.7932 30.962 79.4899 27.981 82.0897 26.0099C84.6894 24.0387 88.265 23.2066 91.3304 24.3255C92.1483 24.6244 92.9218 25.0526 93.7721 25.2343C96.3435 25.7877 99.1295 23.554 99.1376 20.9325C101.118 21.8696 103.738 21.1305 104.932 19.3007C106.074 17.5517 105.981 15.3503 105.856 13.2418C106.094 13.2822 106.337 13.3347 106.588 13.3913C107.002 13.4922 107.386 13.6053 107.751 13.7265C108.35 10.4588 108.731 7.25563 106.872 4.206L106.88 4.18176ZM85.5883 5.98327C86.9975 6.11252 88.1313 6.573 89.2085 7.23947C88.4553 7.55049 87.6535 7.70399 86.7748 7.6232C85.4142 7.49798 84.1953 6.79112 82.9441 6.22158C83.8997 6.0277 84.8432 5.91864 85.5883 5.98731V5.98327ZM69.9658 10.9798C70.6704 10.5153 71.4155 10.3982 72.1768 10.3739C71.1482 11.2828 70.0792 12.1149 68.8967 12.6682C68.7226 12.749 68.5485 12.8217 68.3703 12.8904C68.8886 12.0947 69.4191 11.3434 69.9658 10.9839V10.9798Z" fill="#F58F29"/>
<path d="M87.2888 51.704C86.3858 51.3283 85.4139 51.1425 84.4421 51.0375C83.3042 50.9204 82.1541 50.9123 81.0244 51.086C79.9391 51.2556 78.8579 51.599 77.9833 52.2654C77.1086 52.9319 76.4607 53.9417 76.4121 55.0364C76.5417 55.0525 76.6308 54.9071 76.6794 54.7859C76.9466 54.1195 77.1896 53.4166 77.6796 52.8875C78.1614 52.3664 78.8377 52.0675 79.5139 51.8534C82.0651 51.0375 84.8672 51.2516 87.3536 52.1887C87.8921 52.3907 88.6737 52.9844 89.2244 53.0006C88.7182 52.4189 87.9893 51.9908 87.2847 51.6999L87.2888 51.704Z" fill="#462255"/>
<path d="M118.008 48.6944C117.093 48.444 116.133 48.444 115.186 48.4561C114.206 48.4682 113.23 48.4965 112.25 48.5369C111.343 48.5733 110.42 48.6258 109.565 48.9287C108.561 49.2842 107.699 49.9668 106.99 50.7625C106.281 51.5583 105.714 52.4631 105.147 53.3638C106.557 50.8756 109.197 49.1145 112.04 48.7712C112.756 48.6823 113.481 48.6823 114.202 48.6864C115.17 48.6944 116.142 48.7227 117.101 48.8722C117.579 48.9449 118.053 49.0499 118.515 49.1993C118.83 49.3003 119.207 49.5346 119.543 49.4902C119.231 49.0741 118.498 48.8318 118.008 48.6985V48.6944Z" fill="#462255"/>
<path d="M88.9454 54.923C88.4231 55.0119 87.5363 54.3454 87.0584 54.1111C86.5644 53.8688 86.0663 53.6224 85.5561 53.4164C85.1066 53.2306 84.649 53.073 84.1753 52.968C83.5233 52.8226 82.8511 52.7862 82.187 52.8509C80.5592 53.0084 78.988 53.7637 77.9028 54.9836C77.595 55.3269 77.3196 55.7107 76.9593 55.9974C76.4814 56.3852 75.874 56.5831 75.2666 56.668C75.9388 56.3004 76.5422 55.8076 77.0321 55.2219C76.5179 55.2946 75.9955 55.3108 75.4731 55.2744C76.777 55.1573 77.7732 54.1313 78.8949 53.4648C80.138 52.7256 81.5917 52.4227 83.0414 52.4671C83.584 52.4833 84.1307 52.5479 84.6612 52.657C84.8353 52.6893 85.0094 52.7297 85.1795 52.7741C85.5966 52.8832 86.0096 53.0165 86.3984 53.2063C86.8114 53.4123 87.1921 53.6789 87.5687 53.9455C88.0262 54.2686 88.5041 54.5797 88.9454 54.923Z" fill="black" stroke="black" stroke-width="0.44" stroke-miterlimit="10"/>
<path d="M121.624 51.8692C121.109 52.3054 120.32 52.2166 119.712 51.9136C119.109 51.6147 118.611 51.1421 118.02 50.819C117.388 50.4716 116.675 50.31 115.967 50.1929C115.513 50.1202 115.051 50.0636 114.59 50.0434C113.91 50.003 113.229 50.0232 112.557 50.1404C112.087 50.2212 111.626 50.3504 111.184 50.5322C110.565 50.7786 109.986 51.126 109.5 51.5824C109.046 52.0146 108.674 52.5276 108.208 52.9477C107.734 53.3758 106.847 54.0665 106.191 54.1069C106.924 53.4687 107.754 53.0002 108.402 52.2489C108.666 51.9459 108.896 51.6107 109.196 51.336C109.783 50.7907 110.723 50.1969 111.492 49.9707C111.67 49.9182 111.844 49.8738 112.018 49.8415C112.638 49.7163 113.229 49.688 113.853 49.6759C114.157 49.6678 114.472 49.6637 114.8 49.6516C115.975 49.6112 117.177 49.8051 118.214 50.3585C118.862 50.7018 119.441 51.1825 120.129 51.441C120.575 51.6107 121.053 51.6793 121.522 51.748C121.065 51.7561 120.607 51.7642 120.15 51.7722C120.632 51.8934 121.134 51.9257 121.624 51.8692Z" fill="black" stroke="black" stroke-width="0.44" stroke-miterlimit="10"/>
<path d="M48.9706 60.0428C47.9005 61.7999 47.3699 64.2502 45.4076 64.8603C44.0302 65.287 42.4372 64.5699 41.1409 65.1972C40.0102 65.747 39.5494 67.1482 39.5854 68.4049C39.6213 69.6615 40.0308 70.8792 40.1266 72.1323C40.3361 74.8497 38.9389 77.6349 36.6354 79.0935C33.5464 81.049 28.92 80.9249 27.1425 84.1187C25.8929 86.3687 26.7648 89.142 26.7769 91.7117C26.7896 95.3831 24.984 98.788 23.2277 102.013C21.7916 104.651 19.7744 107.648 16.7688 107.621C19.167 105.392 21.6004 103.113 23.2196 100.271C24.8388 97.4258 25.5449 93.8737 24.2888 90.8542C23.6925 89.4219 22.6735 88.12 22.521 86.5748C22.28 84.1004 24.3717 81.973 26.612 80.884C28.8524 79.795 31.382 79.3395 33.5059 78.0358C35.9257 76.5489 37.6436 73.9748 38.0895 71.169C38.4756 68.7259 38.1005 65.8044 39.9811 64.1982C40.8263 63.4796 41.9572 63.2114 42.9223 62.6617C44.9793 61.4919 46.0809 59.1891 47.7853 57.5513C50.2504 55.1808 54.0834 54.3479 57.3081 55.483C58.1751 55.7887 59.1445 56.633 58.7151 57.4393C55.1206 56.5192 51.1813 56.4194 48.9777 60.0357L48.9706 60.0428Z" fill="#F58F29"/>
<path d="M52.3391 35.9245C51.4551 36.5375 50.155 36.7073 49.9585 38.0485C49.8216 38.9885 50.3262 40.1779 50.073 41.044C49.8514 41.801 49.1187 42.0091 48.4315 41.8792C47.7443 41.7494 47.05 41.3591 46.3593 41.187C44.8616 40.8112 43.4385 41.5689 42.8052 43.0828C41.9537 45.1074 42.3467 48.3949 40.7264 49.3885C39.5852 50.0861 38.0133 49.2387 36.6073 49.0142C34.6022 48.6986 32.8692 49.6923 31.2314 50.6718C29.8929 51.4716 28.3996 52.6482 28.6228 54.7777C29.672 53.267 30.7457 51.7316 32.1828 50.8226C33.6199 49.9136 35.5119 49.7083 37.2496 50.8478C38.0744 51.3894 38.8571 52.2197 39.7099 52.4551C41.0773 52.8344 42.0913 51.5279 42.5273 50.0316C42.9634 48.5353 43.0364 46.7823 43.5993 45.388C44.2397 43.7966 45.5251 42.7961 47.0261 42.7143C48.3333 42.6432 49.9544 43.1526 50.6972 41.9554C51.0316 41.4166 51.0981 40.6386 51.3303 40.0014C51.8228 38.6423 53.0028 38.0538 53.7808 36.9832C54.9004 35.4338 55.0892 32.7901 54.2421 30.411C54.0163 29.774 53.4873 29.014 53.0752 29.2536C53.8272 31.8756 54.16 34.6739 52.3391 35.9351L52.3391 35.9245Z" fill="#F58F29"/>
<path d="M27.4102 108.196C27.372 109.181 27.5841 110.22 27.1371 111.121C26.2537 112.913 23.5477 112.964 22.0123 114.306C19.8112 116.229 20.6978 120.083 18.398 121.897C17.5 122.606 16.2563 122.856 15.4605 123.666C14.0589 125.093 14.6981 127.451 13.6878 129.144C11.9876 131.997 7.093 131.179 4.80063 133.638C7.22114 133.408 9.63101 133.051 12.0161 132.56C14.2321 132.105 16.846 131.139 17.2711 129.016C17.4222 128.262 17.2526 127.474 17.4883 126.738C18.2163 124.467 21.9582 124.37 23.1021 122.25C24.0806 120.437 22.7014 117.91 24.1628 116.41C25.1066 115.441 26.8401 115.433 27.6569 114.366C28.3681 113.436 28.0503 112.159 28.3668 111.06C28.9153 109.159 31.1205 108.229 32.8252 107.091C34.5299 105.953 35.9167 103.467 34.415 102.19C32.462 100.53 27.4622 106.738 27.4067 108.192L27.4102 108.196Z" fill="#F58F29"/>
<path d="M146.7 55.7934C146.177 54.6743 144.912 53.8584 145.614 52.2388C146.104 51.105 147.448 49.9919 147.767 48.8829C148.044 47.9182 147.408 47.3272 146.59 47.1482C145.772 46.9656 144.768 47.0788 143.918 46.9456C142.072 46.658 141.078 45.1133 141.427 43.089C141.896 40.3748 144.541 36.818 143.497 34.9177C142.759 33.577 140.509 33.7931 138.87 33.3716C136.524 32.771 135.361 30.811 134.283 28.9178C133.401 27.3695 132.613 25.3143 134.3 22.9936C134.389 25.2182 134.489 27.478 135.399 29.2023C136.309 30.9266 138.177 32.0625 140.799 31.5928C142.042 31.3704 143.435 30.7993 144.502 30.936C146.212 31.1602 146.403 33.1314 145.853 35.0431C145.303 36.9548 144.188 38.9865 143.841 40.8453C143.446 42.9611 144.128 44.7208 145.666 45.526C147.007 46.2292 149.075 46.4251 149.051 48.1465C149.041 48.9174 148.582 49.8364 148.396 50.6742C148.001 52.4591 148.854 53.6907 148.95 55.2817C149.092 57.5802 147.493 60.6823 144.981 62.9859C144.307 63.6058 143.23 64.2154 142.956 63.7474C145.534 61.12 147.783 58.0914 146.707 55.7899L146.7 55.7934Z" fill="#E83F6F"/>
<path d="M157.204 39.9259C156.428 39.1872 155.992 37.9519 154.644 38.0371C153.7 38.0975 152.64 38.8338 151.745 38.764C150.962 38.7046 150.607 38.0289 150.593 37.3284C150.578 36.628 150.816 35.871 150.844 35.1599C150.903 33.6181 149.874 32.3832 148.266 32.0743C146.114 31.6602 142.987 32.718 141.687 31.3389C140.77 30.3679 141.278 28.6534 141.207 27.2348C141.104 25.2073 139.776 23.7226 138.491 22.3224C137.437 21.179 135.979 19.9583 133.947 20.6178C135.636 21.3314 137.357 22.0661 138.537 23.2868C139.721 24.5076 140.308 26.3096 139.551 28.246C139.19 29.1615 138.541 30.0982 138.485 30.9817C138.398 32.3969 139.88 33.1211 141.428 33.2399C142.976 33.3587 144.707 33.0691 146.181 33.3322C147.863 33.634 149.106 34.6822 149.493 36.1323C149.831 37.3958 149.663 39.0855 150.987 39.567C151.58 39.7814 152.356 39.6859 153.023 39.784C154.452 39.9874 155.267 41.0218 156.471 41.5562C158.213 42.3331 160.831 41.9725 162.983 40.6548C163.558 40.3024 164.19 39.6297 163.873 39.2744C161.466 40.55 158.806 41.4492 157.204 39.9295L157.204 39.9259Z" fill="#E83F6F"/>
<path d="M175.446 100V65.0909H179.673V82.4091H180.082L195.764 65.0909H201.287L186.628 80.8409L201.287 100H196.173L184.037 83.7727L179.673 88.6818V100H175.446ZM213.918 100.614C212.259 100.614 210.753 100.301 209.401 99.6761C208.048 99.0398 206.974 98.125 206.179 96.9318C205.384 95.7273 204.986 94.2727 204.986 92.5682C204.986 91.0682 205.281 89.8523 205.872 88.9205C206.463 87.9773 207.253 87.2386 208.241 86.7045C209.23 86.1705 210.321 85.7727 211.514 85.5114C212.719 85.2386 213.929 85.0227 215.145 84.8636C216.736 84.6591 218.026 84.5057 219.014 84.4034C220.014 84.2898 220.741 84.1023 221.196 83.8409C221.662 83.5795 221.895 83.125 221.895 82.4773V82.3409C221.895 80.6591 221.435 79.3523 220.514 78.4205C219.605 77.4886 218.224 77.0227 216.372 77.0227C214.452 77.0227 212.946 77.4432 211.855 78.2841C210.764 79.125 209.997 80.0227 209.554 80.9773L205.736 79.6136C206.418 78.0227 207.327 76.7841 208.463 75.8977C209.611 75 210.861 74.375 212.213 74.0227C213.577 73.6591 214.918 73.4773 216.236 73.4773C217.077 73.4773 218.043 73.5795 219.134 73.7841C220.236 73.9773 221.298 74.3807 222.321 74.9943C223.355 75.608 224.213 76.5341 224.895 77.7727C225.577 79.0114 225.918 80.6705 225.918 82.75V100H221.895V96.4545H221.69C221.418 97.0227 220.963 97.6307 220.327 98.2784C219.69 98.9261 218.844 99.4773 217.787 99.9318C216.73 100.386 215.44 100.614 213.918 100.614ZM214.531 97C216.122 97 217.463 96.6875 218.554 96.0625C219.656 95.4375 220.486 94.6307 221.043 93.642C221.611 92.6534 221.895 91.6136 221.895 90.5227V86.8409C221.724 87.0455 221.349 87.233 220.77 87.4034C220.202 87.5625 219.543 87.7045 218.793 87.8295C218.054 87.9432 217.332 88.0455 216.628 88.1364C215.935 88.2159 215.372 88.2841 214.94 88.3409C213.895 88.4773 212.918 88.6989 212.009 89.0057C211.111 89.3011 210.384 89.75 209.827 90.3523C209.281 90.9432 209.009 91.75 209.009 92.7727C209.009 94.1705 209.526 95.2273 210.56 95.9432C211.605 96.6477 212.929 97 214.531 97ZM244.646 73.8182V77.2273H231.078V73.8182H244.646ZM235.033 67.5455H239.055V92.5C239.055 93.6364 239.22 94.4886 239.55 95.0568C239.891 95.6136 240.322 95.9886 240.845 96.1818C241.379 96.3636 241.942 96.4545 242.533 96.4545C242.976 96.4545 243.339 96.4318 243.624 96.3864C243.908 96.3295 244.135 96.2841 244.305 96.25L245.124 99.8636C244.851 99.9659 244.47 100.068 243.982 100.17C243.493 100.284 242.874 100.341 242.124 100.341C240.987 100.341 239.874 100.097 238.783 99.608C237.703 99.1193 236.805 98.375 236.089 97.375C235.385 96.375 235.033 95.1136 235.033 93.5909V67.5455ZM261.393 100.545C258.871 100.545 256.695 99.9886 254.865 98.875C253.047 97.75 251.643 96.1818 250.655 94.1705C249.678 92.1477 249.189 89.7955 249.189 87.1136C249.189 84.4318 249.678 82.0682 250.655 80.0227C251.643 77.9659 253.018 76.3636 254.78 75.2159C256.553 74.0568 258.621 73.4773 260.984 73.4773C262.348 73.4773 263.695 73.7045 265.024 74.1591C266.354 74.6136 267.564 75.3523 268.655 76.375C269.746 77.3864 270.615 78.7273 271.263 80.3977C271.911 82.0682 272.234 84.125 272.234 86.5682V88.2727H252.053V84.7955H268.143C268.143 83.3182 267.848 82 267.257 80.8409C266.678 79.6818 265.848 78.767 264.768 78.0966C263.7 77.4261 262.439 77.0909 260.984 77.0909C259.382 77.0909 257.996 77.4886 256.825 78.2841C255.666 79.0682 254.774 80.0909 254.149 81.3523C253.524 82.6136 253.212 83.9659 253.212 85.4091V87.7273C253.212 89.7045 253.553 91.3807 254.234 92.7557C254.928 94.1193 255.888 95.1591 257.115 95.875C258.342 96.5795 259.768 96.9318 261.393 96.9318C262.45 96.9318 263.405 96.7841 264.257 96.4886C265.121 96.1818 265.865 95.7273 266.49 95.125C267.115 94.5114 267.598 93.75 267.939 92.8409L271.825 93.9318C271.416 95.25 270.729 96.4091 269.763 97.4091C268.797 98.3977 267.604 99.1705 266.183 99.7273C264.763 100.273 263.166 100.545 261.393 100.545ZM296.626 65.0909V100H292.399V65.0909H296.626ZM308.58 65.0909V100H304.557V65.0909H308.58ZM315.947 100V73.8182H319.97V100H315.947ZM317.993 69.4545C317.209 69.4545 316.533 69.1875 315.964 68.6534C315.408 68.1193 315.129 67.4773 315.129 66.7273C315.129 65.9773 315.408 65.3352 315.964 64.8011C316.533 64.267 317.209 64 317.993 64C318.777 64 319.447 64.267 320.004 64.8011C320.572 65.3352 320.857 65.9773 320.857 66.7273C320.857 67.4773 320.572 68.1193 320.004 68.6534C319.447 69.1875 318.777 69.4545 317.993 69.4545ZM335.043 100.614C333.384 100.614 331.878 100.301 330.526 99.6761C329.173 99.0398 328.099 98.125 327.304 96.9318C326.509 95.7273 326.111 94.2727 326.111 92.5682C326.111 91.0682 326.406 89.8523 326.997 88.9205C327.588 87.9773 328.378 87.2386 329.366 86.7045C330.355 86.1705 331.446 85.7727 332.639 85.5114C333.844 85.2386 335.054 85.0227 336.27 84.8636C337.861 84.6591 339.151 84.5057 340.139 84.4034C341.139 84.2898 341.866 84.1023 342.321 83.8409C342.787 83.5795 343.02 83.125 343.02 82.4773V82.3409C343.02 80.6591 342.56 79.3523 341.639 78.4205C340.73 77.4886 339.349 77.0227 337.497 77.0227C335.577 77.0227 334.071 77.4432 332.98 78.2841C331.889 79.125 331.122 80.0227 330.679 80.9773L326.861 79.6136C327.543 78.0227 328.452 76.7841 329.588 75.8977C330.736 75 331.986 74.375 333.338 74.0227C334.702 73.6591 336.043 73.4773 337.361 73.4773C338.202 73.4773 339.168 73.5795 340.259 73.7841C341.361 73.9773 342.423 74.3807 343.446 74.9943C344.48 75.608 345.338 76.5341 346.02 77.7727C346.702 79.0114 347.043 80.6705 347.043 82.75V100H343.02V96.4545H342.815C342.543 97.0227 342.088 97.6307 341.452 98.2784C340.815 98.9261 339.969 99.4773 338.912 99.9318C337.855 100.386 336.565 100.614 335.043 100.614ZM335.656 97C337.247 97 338.588 96.6875 339.679 96.0625C340.781 95.4375 341.611 94.6307 342.168 93.642C342.736 92.6534 343.02 91.6136 343.02 90.5227V86.8409C342.849 87.0455 342.474 87.233 341.895 87.4034C341.327 87.5625 340.668 87.7045 339.918 87.8295C339.179 87.9432 338.457 88.0455 337.753 88.1364C337.06 88.2159 336.497 88.2841 336.065 88.3409C335.02 88.4773 334.043 88.6989 333.134 89.0057C332.236 89.3011 331.509 89.75 330.952 90.3523C330.406 90.9432 330.134 91.75 330.134 92.7727C330.134 94.1705 330.651 95.2273 331.685 95.9432C332.73 96.6477 334.054 97 335.656 97ZM372.93 79.6818L369.317 80.7045C369.089 80.1023 368.754 79.517 368.311 78.9489C367.879 78.3693 367.288 77.892 366.538 77.517C365.788 77.142 364.828 76.9545 363.658 76.9545C362.055 76.9545 360.72 77.3239 359.652 78.0625C358.595 78.7898 358.067 79.7159 358.067 80.8409C358.067 81.8409 358.43 82.6307 359.158 83.2102C359.885 83.7898 361.021 84.2727 362.567 84.6591L366.453 85.6136C368.794 86.1818 370.538 87.0511 371.686 88.2216C372.834 89.3807 373.408 90.875 373.408 92.7045C373.408 94.2045 372.976 95.5455 372.112 96.7273C371.26 97.9091 370.067 98.8409 368.533 99.5227C366.999 100.205 365.214 100.545 363.18 100.545C360.51 100.545 358.3 99.9659 356.55 98.8068C354.8 97.6477 353.692 95.9545 353.226 93.7273L357.044 92.7727C357.408 94.1818 358.095 95.2386 359.107 95.9432C360.129 96.6477 361.464 97 363.112 97C364.987 97 366.476 96.6023 367.578 95.8068C368.692 95 369.249 94.0341 369.249 92.9091C369.249 92 368.93 91.2386 368.294 90.625C367.658 90 366.68 89.5341 365.362 89.2273L360.999 88.2045C358.601 87.6364 356.839 86.7557 355.714 85.5625C354.601 84.358 354.044 82.8523 354.044 81.0455C354.044 79.5682 354.459 78.2614 355.288 77.125C356.129 75.9886 357.271 75.0966 358.714 74.4489C360.169 73.8011 361.817 73.4773 363.658 73.4773C366.249 73.4773 368.283 74.0455 369.76 75.1818C371.249 76.3182 372.305 77.8182 372.93 79.6818Z" fill="#462255"/>
</svg>
