<svg width="404" height="253" viewBox="0 0 404 253" fill="none" xmlns="http://www.w3.org/2000/svg">
<path d="M203.446 108V73.0909H207.673V90.4091H208.082L223.764 73.0909H229.287L214.628 88.8409L229.287 108H224.173L212.037 91.7727L207.673 96.6818V108H203.446ZM241.918 108.614C240.259 108.614 238.753 108.301 237.401 107.676C236.048 107.04 234.974 106.125 234.179 104.932C233.384 103.727 232.986 102.273 232.986 100.568C232.986 99.0682 233.281 97.8523 233.872 96.9205C234.463 95.9773 235.253 95.2386 236.241 94.7045C237.23 94.1705 238.321 93.7727 239.514 93.5114C240.719 93.2386 241.929 93.0227 243.145 92.8636C244.736 92.6591 246.026 92.5057 247.014 92.4034C248.014 92.2898 248.741 92.1023 249.196 91.8409C249.662 91.5795 249.895 91.125 249.895 90.4773V90.3409C249.895 88.6591 249.435 87.3523 248.514 86.4205C247.605 85.4886 246.224 85.0227 244.372 85.0227C242.452 85.0227 240.946 85.4432 239.855 86.2841C238.764 87.125 237.997 88.0227 237.554 88.9773L233.736 87.6136C234.418 86.0227 235.327 84.7841 236.463 83.8977C237.611 83 238.861 82.375 240.213 82.0227C241.577 81.6591 242.918 81.4773 244.236 81.4773C245.077 81.4773 246.043 81.5795 247.134 81.7841C248.236 81.9773 249.298 82.3807 250.321 82.9943C251.355 83.608 252.213 84.5341 252.895 85.7727C253.577 87.0114 253.918 88.6705 253.918 90.75V108H249.895V104.455H249.69C249.418 105.023 248.963 105.631 248.327 106.278C247.69 106.926 246.844 107.477 245.787 107.932C244.73 108.386 243.44 108.614 241.918 108.614ZM242.531 105C244.122 105 245.463 104.688 246.554 104.062C247.656 103.438 248.486 102.631 249.043 101.642C249.611 100.653 249.895 99.6136 249.895 98.5227V94.8409C249.724 95.0455 249.349 95.233 248.77 95.4034C248.202 95.5625 247.543 95.7045 246.793 95.8295C246.054 95.9432 245.332 96.0455 244.628 96.1364C243.935 96.2159 243.372 96.2841 242.94 96.3409C241.895 96.4773 240.918 96.6989 240.009 97.0057C239.111 97.3011 238.384 97.75 237.827 98.3523C237.281 98.9432 237.009 99.75 237.009 100.773C237.009 102.17 237.526 103.227 238.56 103.943C239.605 104.648 240.929 105 242.531 105ZM272.646 81.8182V85.2273H259.078V81.8182H272.646ZM263.033 75.5455H267.055V100.5C267.055 101.636 267.22 102.489 267.55 103.057C267.891 103.614 268.322 103.989 268.845 104.182C269.379 104.364 269.942 104.455 270.533 104.455C270.976 104.455 271.339 104.432 271.624 104.386C271.908 104.33 272.135 104.284 272.305 104.25L273.124 107.864C272.851 107.966 272.47 108.068 271.982 108.17C271.493 108.284 270.874 108.341 270.124 108.341C268.987 108.341 267.874 108.097 266.783 107.608C265.703 107.119 264.805 106.375 264.089 105.375C263.385 104.375 263.033 103.114 263.033 101.591V75.5455ZM289.393 108.545C286.871 108.545 284.695 107.989 282.865 106.875C281.047 105.75 279.643 104.182 278.655 102.17C277.678 100.148 277.189 97.7955 277.189 95.1136C277.189 92.4318 277.678 90.0682 278.655 88.0227C279.643 85.9659 281.018 84.3636 282.78 83.2159C284.553 82.0568 286.621 81.4773 288.984 81.4773C290.348 81.4773 291.695 81.7045 293.024 82.1591C294.354 82.6136 295.564 83.3523 296.655 84.375C297.746 85.3864 298.615 86.7273 299.263 88.3977C299.911 90.0682 300.234 92.125 300.234 94.5682V96.2727H280.053V92.7955H296.143C296.143 91.3182 295.848 90 295.257 88.8409C294.678 87.6818 293.848 86.767 292.768 86.0966C291.7 85.4261 290.439 85.0909 288.984 85.0909C287.382 85.0909 285.996 85.4886 284.825 86.2841C283.666 87.0682 282.774 88.0909 282.149 89.3523C281.524 90.6136 281.212 91.9659 281.212 93.4091V95.7273C281.212 97.7045 281.553 99.3807 282.234 100.756C282.928 102.119 283.888 103.159 285.115 103.875C286.342 104.58 287.768 104.932 289.393 104.932C290.45 104.932 291.405 104.784 292.257 104.489C293.121 104.182 293.865 103.727 294.49 103.125C295.115 102.511 295.598 101.75 295.939 100.841L299.825 101.932C299.416 103.25 298.729 104.409 297.763 105.409C296.797 106.398 295.604 107.17 294.183 107.727C292.763 108.273 291.166 108.545 289.393 108.545ZM324.626 73.0909V108H320.399V73.0909H324.626ZM336.58 73.0909V108H332.557V73.0909H336.58ZM343.947 108V81.8182H347.97V108H343.947ZM345.993 77.4545C345.209 77.4545 344.533 77.1875 343.964 76.6534C343.408 76.1193 343.129 75.4773 343.129 74.7273C343.129 73.9773 343.408 73.3352 343.964 72.8011C344.533 72.267 345.209 72 345.993 72C346.777 72 347.447 72.267 348.004 72.8011C348.572 73.3352 348.857 73.9773 348.857 74.7273C348.857 75.4773 348.572 76.1193 348.004 76.6534C347.447 77.1875 346.777 77.4545 345.993 77.4545ZM363.043 108.614C361.384 108.614 359.878 108.301 358.526 107.676C357.173 107.04 356.099 106.125 355.304 104.932C354.509 103.727 354.111 102.273 354.111 100.568C354.111 99.0682 354.406 97.8523 354.997 96.9205C355.588 95.9773 356.378 95.2386 357.366 94.7045C358.355 94.1705 359.446 93.7727 360.639 93.5114C361.844 93.2386 363.054 93.0227 364.27 92.8636C365.861 92.6591 367.151 92.5057 368.139 92.4034C369.139 92.2898 369.866 92.1023 370.321 91.8409C370.787 91.5795 371.02 91.125 371.02 90.4773V90.3409C371.02 88.6591 370.56 87.3523 369.639 86.4205C368.73 85.4886 367.349 85.0227 365.497 85.0227C363.577 85.0227 362.071 85.4432 360.98 86.2841C359.889 87.125 359.122 88.0227 358.679 88.9773L354.861 87.6136C355.543 86.0227 356.452 84.7841 357.588 83.8977C358.736 83 359.986 82.375 361.338 82.0227C362.702 81.6591 364.043 81.4773 365.361 81.4773C366.202 81.4773 367.168 81.5795 368.259 81.7841C369.361 81.9773 370.423 82.3807 371.446 82.9943C372.48 83.608 373.338 84.5341 374.02 85.7727C374.702 87.0114 375.043 88.6705 375.043 90.75V108H371.02V104.455H370.815C370.543 105.023 370.088 105.631 369.452 106.278C368.815 106.926 367.969 107.477 366.912 107.932C365.855 108.386 364.565 108.614 363.043 108.614ZM363.656 105C365.247 105 366.588 104.688 367.679 104.062C368.781 103.438 369.611 102.631 370.168 101.642C370.736 100.653 371.02 99.6136 371.02 98.5227V94.8409C370.849 95.0455 370.474 95.233 369.895 95.4034C369.327 95.5625 368.668 95.7045 367.918 95.8295C367.179 95.9432 366.457 96.0455 365.753 96.1364C365.06 96.2159 364.497 96.2841 364.065 96.3409C363.02 96.4773 362.043 96.6989 361.134 97.0057C360.236 97.3011 359.509 97.75 358.952 98.3523C358.406 98.9432 358.134 99.75 358.134 100.773C358.134 102.17 358.651 103.227 359.685 103.943C360.73 104.648 362.054 105 363.656 105ZM400.93 87.6818L397.317 88.7045C397.089 88.1023 396.754 87.517 396.311 86.9489C395.879 86.3693 395.288 85.892 394.538 85.517C393.788 85.142 392.828 84.9545 391.658 84.9545C390.055 84.9545 388.72 85.3239 387.652 86.0625C386.595 86.7898 386.067 87.7159 386.067 88.8409C386.067 89.8409 386.43 90.6307 387.158 91.2102C387.885 91.7898 389.021 92.2727 390.567 92.6591L394.453 93.6136C396.794 94.1818 398.538 95.0511 399.686 96.2216C400.834 97.3807 401.408 98.875 401.408 100.705C401.408 102.205 400.976 103.545 400.112 104.727C399.26 105.909 398.067 106.841 396.533 107.523C394.999 108.205 393.214 108.545 391.18 108.545C388.51 108.545 386.3 107.966 384.55 106.807C382.8 105.648 381.692 103.955 381.226 101.727L385.044 100.773C385.408 102.182 386.095 103.239 387.107 103.943C388.129 104.648 389.464 105 391.112 105C392.987 105 394.476 104.602 395.578 103.807C396.692 103 397.249 102.034 397.249 100.909C397.249 100 396.93 99.2386 396.294 98.625C395.658 98 394.68 97.5341 393.362 97.2273L388.999 96.2045C386.601 95.6364 384.839 94.7557 383.714 93.5625C382.601 92.358 382.044 90.8523 382.044 89.0455C382.044 87.5682 382.459 86.2614 383.288 85.125C384.129 83.9886 385.271 83.0966 386.714 82.4489C388.169 81.8011 389.817 81.4773 391.658 81.4773C394.249 81.4773 396.283 82.0455 397.76 83.1818C399.249 84.3182 400.305 85.8182 400.93 87.6818Z" fill="#462255"/>
<g clip-path="url(#clip0_125_889)">
<path d="M61.7806 90.1941C60.2929 92.2091 59.3839 95.1232 56.9393 95.6505C55.2234 96.0187 53.3703 94.9762 51.731 95.5965C50.3008 96.1407 49.5903 97.7902 49.4976 99.3182C49.4049 100.846 49.7691 102.367 49.7494 103.897C49.7086 107.216 47.7129 110.442 44.7626 111.961C40.8063 113.998 35.212 113.346 32.7111 117.027C30.9525 119.62 31.7086 123.078 31.4445 126.196C31.0617 130.65 28.5038 134.584 26.0251 138.305C23.9984 141.348 21.2283 144.764 17.5881 144.406C20.7368 141.962 23.9335 139.462 26.2043 136.191C28.4755 132.916 29.7167 128.684 28.5216 124.886C27.9542 123.085 26.8602 121.395 26.843 119.505C26.8192 116.478 29.5854 114.124 32.419 113.046C35.2526 111.969 38.3682 111.69 41.084 110.339C44.1783 108.798 46.5399 105.863 47.3846 102.508C48.1177 99.5871 47.9798 96.0034 50.4335 94.2592C51.5359 93.4793 52.9358 93.2767 54.1652 92.7146C56.7855 91.5188 58.3704 88.8455 60.614 87.0439C63.859 84.4363 68.5955 83.8416 72.3811 85.5677C73.3988 86.0325 74.4823 87.1615 73.8744 88.0929C69.6172 86.5873 64.8531 86.0392 61.7899 90.1863L61.7806 90.1941Z" fill="#F58F29"/>
<path d="M68.4788 61.3092C67.3408 61.9568 65.7465 62.0217 65.3628 63.6271C65.095 64.7522 65.5776 66.2494 65.1767 67.2724C64.8261 68.1664 63.9153 68.3393 63.0965 68.1074C62.2777 67.8754 61.4784 67.3268 60.6598 67.0432C58.8852 66.4251 57.0781 67.1897 56.1462 68.9572C54.8945 71.3203 55.0143 75.3499 52.9427 76.3793C51.4837 77.1017 49.6702 75.9035 47.9903 75.4789C45.5942 74.8788 43.3859 75.896 41.2943 76.9064C39.5852 77.7314 37.6476 78.9964 37.6872 81.6033C39.1227 79.8848 40.5908 78.1391 42.4312 77.1925C44.2717 76.2458 46.5873 76.2019 48.5701 77.7723C49.5111 78.5185 50.3697 79.6103 51.3779 79.9882C52.9942 80.5965 54.365 79.1219 55.0558 77.3545C55.7466 75.5871 56.0252 73.4689 56.8588 71.839C57.8076 69.9783 59.4742 68.9044 61.3024 68.9678C62.8946 69.0232 64.8043 69.8168 65.8345 68.4453C66.2983 67.8281 66.4632 66.8918 66.8138 66.1441C67.5582 64.5493 69.0523 63.9634 70.1115 62.7494C71.6366 60.9916 72.1521 57.8058 71.3835 54.8287C71.1788 54.0317 70.62 53.0526 70.0945 53.2985C70.7217 56.56 70.8216 59.9897 68.4777 61.322L68.4788 61.3092Z" fill="#F58F29"/>
<path d="M30.4237 146.256C30.2705 147.447 30.4148 148.729 29.7753 149.774C28.5102 151.852 25.2247 151.62 23.218 153.081C20.3414 155.175 20.9982 159.945 18.0138 161.896C16.8484 162.658 15.3138 162.827 14.2613 163.723C12.4078 165.301 12.9267 168.23 11.5184 170.175C9.14827 173.45 3.30408 171.928 0.258841 174.661C3.21775 174.644 6.17749 174.472 9.12175 174.136C11.8572 173.824 15.1303 172.936 15.8758 170.407C16.1406 169.51 16.0206 168.535 16.386 167.668C17.5148 164.993 22.061 165.281 23.6774 162.834C25.0601 160.741 23.6624 157.527 25.5965 155.866C26.8455 154.794 28.9476 154.972 30.0535 153.766C31.0164 152.716 30.7696 151.132 31.2724 149.834C32.1435 147.588 34.9173 146.698 37.1071 145.503C39.2968 144.307 41.2474 141.443 39.5656 139.731C37.3784 137.506 30.6448 144.494 30.4198 146.251L30.4237 146.256Z" fill="#F58F29"/>
<path d="M167.26 83.2123C166.621 81.8494 165.078 80.855 165.935 78.8834C166.536 77.5032 168.178 76.1488 168.568 74.7987C168.907 73.6243 168.131 72.9042 167.132 72.6856C166.133 72.4627 164.906 72.5999 163.869 72.437C161.613 72.0856 160.4 70.2039 160.828 67.7394C161.403 64.4348 164.636 60.1058 163.363 57.7913C162.462 56.1583 159.714 56.4198 157.711 55.9054C154.847 55.1725 153.427 52.7851 152.111 50.4792C151.035 48.5933 150.074 46.0902 152.137 43.2656C152.244 45.9745 152.364 48.7262 153.475 50.8264C154.585 52.9266 156.866 54.311 160.069 53.7409C161.587 53.4709 163.29 52.7765 164.593 52.9437C166.681 53.218 166.913 55.6182 166.24 57.9456C165.567 60.273 164.203 62.7461 163.779 65.0092C163.294 67.5851 164.126 69.7282 166.004 70.7097C167.642 71.5669 170.168 71.807 170.138 73.9029C170.125 74.8415 169.563 75.9602 169.336 76.9803C168.851 79.1534 169.893 80.6535 170.009 82.5909C170.18 85.3897 168.225 89.1658 165.155 91.9689C164.332 92.7233 163.015 93.4648 162.681 92.8947C165.832 89.6973 168.581 86.0112 167.269 83.2081L167.26 83.2123Z" fill="#E83F6F"/>
<path d="M180.103 63.8995C179.155 62.9994 178.623 61.495 176.977 61.5978C175.823 61.6707 174.528 62.5665 173.435 62.4808C172.479 62.4079 172.046 61.585 172.029 60.732C172.011 59.8791 172.303 58.9576 172.337 58.0918C172.41 56.2144 171.154 54.71 169.19 54.3328C166.561 53.8271 162.741 55.1129 161.154 53.4327C160.035 52.2498 160.657 50.1624 160.571 48.4351C160.447 45.9663 158.826 44.1576 157.257 42.4517C155.97 41.0587 154.191 39.5714 151.708 40.3729C153.771 41.243 155.872 42.1388 157.312 43.6261C158.757 45.1134 159.473 47.3079 158.547 49.6652C158.106 50.7796 157.312 51.9197 157.244 52.9956C157.137 54.7186 158.946 55.6015 160.837 55.7473C162.728 55.893 164.842 55.5415 166.643 55.863C168.697 56.2316 170.215 57.5089 170.686 59.2747C171.098 60.8135 170.892 62.8708 172.509 63.458C173.233 63.7195 174.181 63.6037 174.996 63.7237C176.741 63.9723 177.736 65.2325 179.207 65.884C181.333 66.8312 184.532 66.394 187.161 64.791C187.864 64.3624 188.636 63.5437 188.25 63.1108C185.308 64.6624 182.058 65.7554 180.103 63.9038V63.8995Z" fill="#E83F6F"/>
</g>
<path d="M180.268 75.2527C180.268 87.5043 177.045 99.0067 171.399 108.957C159.6 129.759 137.218 143.797 111.552 143.797C109.872 143.797 108.205 143.736 106.558 143.616C70.9366 141.068 42.835 111.431 42.835 75.2527C42.835 39.0743 73.5986 6.70801 111.552 6.70801C149.505 6.70801 180.268 37.3946 180.268 75.2527Z" fill="#462255"/>
<path d="M171.399 108.957C159.6 129.759 137.218 143.797 111.551 143.797C109.872 143.797 108.204 143.735 106.558 143.616C106.628 142.887 106.702 142.138 106.776 141.368C108.155 127.313 109.282 123.143 111.436 118.792C113.669 114.284 116.133 111.332 117.874 109.274C128.171 97.088 143.797 88.9079 146.942 92.0078C147.751 92.7983 146.892 93.5022 147.164 100.641C147.375 106.112 147.973 108.158 149.385 109.714C149.632 109.986 150.714 111.139 152.934 111.929C158.089 113.761 162.703 111.266 168.246 109.714C168.89 109.533 169.983 109.245 171.399 108.957Z" fill="#DADFF7"/>
<path d="M133.702 21.5448C137.375 23.7967 141.481 26.312 145.092 31.2851C148.885 36.5052 150.074 41.5977 151.011 45.5993C151.555 47.9376 152.109 51.1487 152.934 55.9283C153.47 59.0488 153.739 60.6132 153.821 61.3872C154.383 66.7678 153.945 71.5351 153.673 74.3716C153.627 74.8491 153.648 74.5856 153.376 77.1751C152.814 82.5393 152.719 83.7085 152.637 84.4042C151.972 89.8796 148.423 94.4245 146.57 96.7999C145.336 98.3807 142.835 101.588 139.323 103.737C138.406 104.297 137.498 104.737 136.215 105.803C134.465 107.261 134.164 108.096 132.368 109.196C131.015 110.027 129.942 110.315 129.706 110.377C128.819 110.604 128.13 110.628 126.747 110.674C124.775 110.735 124.696 110.558 123.347 110.674C121.663 110.818 121.535 111.118 120.387 111.118C118.732 111.114 117.474 110.484 116.987 110.233C115.245 109.34 115.08 108.426 112.843 106.544C111.72 105.597 110.99 105.182 110.181 104.626C106.661 102.218 104.102 98.9242 102.339 96.6558C100.396 94.1569 98.431 91.6292 96.8669 87.8006C95.4265 84.2807 95.7897 83.2433 93.9077 79.5382C93.1401 78.0273 92.4962 77.0516 92.133 75.2567C91.8111 73.6882 91.9267 72.5725 92.133 69.946C92.2981 67.8341 92.3807 65.7098 92.5788 63.602C93.2886 55.9859 93.0864 56.9616 93.4661 53.4212C94.1471 47.0772 94.4731 43.9031 95.0922 41.6142C97.1888 33.8828 101.118 29.0044 102.046 27.8888C104.184 25.3158 105.959 23.1792 109.149 21.5448C111.394 20.3921 115.773 20.038 124.535 19.33C125.505 19.2517 127.185 19.1282 129.269 19.6264C131.081 20.0586 132.459 20.7791 133.706 21.5448H133.702Z" fill="#DADFF7" stroke="#462255" stroke-miterlimit="10"/>
<path d="M169.897 35.1545C169.918 32.3304 169.03 29.5845 168.155 26.9003C167.577 25.126 166.917 23.2323 165.415 22.1166C164.383 21.3509 163.087 21.0545 161.837 20.754C160.045 20.3217 158.242 19.8318 156.657 18.8973C155.072 17.9628 153.706 16.5219 153.24 14.7475C153.021 13.9118 153.005 13.0267 152.745 12.2034C152.307 10.7995 151.147 9.64683 149.74 9.21456C147.565 8.54764 145.093 9.54802 142.976 8.71643C142.022 8.3418 141.246 7.63371 140.338 7.1644C138.362 6.14343 135.902 6.37397 133.904 7.35789C133.062 7.05324 132.191 6.92562 131.271 7.12323C129.645 7.47727 128.382 8.83582 127.734 10.3673C127.082 11.8905 126.946 13.5866 126.855 15.2416C126.847 15.3815 126.847 15.5215 126.839 15.6656C126.166 17.3864 125.881 19.2019 126.319 20.9804C126.418 21.3756 126.55 21.7543 126.698 22.129C126.711 24.0392 126.768 25.9494 126.88 27.8596C127.462 27.9748 128.097 28.0695 128.758 28.1683C129.307 28.4606 130.058 28.3577 131.094 28.4606C132.662 28.6212 134.226 28.7776 135.794 28.9381C137.751 29.1358 139.971 29.4857 141.048 31.1283C141.725 32.1575 141.771 33.4625 141.812 34.6934C141.903 37.3158 140.706 40.9551 142.575 42.7994C144.391 44.5902 147.978 44.4009 150.858 44.9566C150.908 45.1748 150.962 45.3889 151.011 45.603C151.556 47.9454 152.109 51.1524 152.93 55.932C153.467 59.0567 153.739 60.6169 153.818 61.395C154.313 66.1046 154.036 70.3449 153.78 73.2349C155.105 72.4527 156.137 71.3865 156.327 69.888C156.513 68.4224 155.906 66.5533 157.119 65.7012C157.54 65.4048 158.073 65.343 158.556 65.1701C158.725 65.1083 158.89 65.0343 159.047 64.9437C159.084 67.4343 158.968 70.1761 159.146 71.3082C160.454 69.9785 161.395 63.7704 161.993 62.0043C162.592 60.2423 162.196 57.9945 160.603 57.0271C159.6 56.4178 158.168 56.2696 157.313 55.6109C157.495 55.298 157.743 55.014 158.019 54.7999C158.803 54.1947 159.794 53.8201 160.367 53.0132C160.632 52.6303 160.792 52.1734 161.119 51.8399C161.824 51.1112 163 51.2347 163.983 50.9795C166.034 50.4443 167.165 48.2171 167.536 46.1381C167.602 45.7594 167.652 45.3765 167.697 44.9937C167.994 45.4589 168.304 45.9117 168.613 46.3604C168.242 42.6059 169.88 38.9255 169.905 35.1545H169.897ZM148.551 13.0679C149.823 13.6442 150.875 14.694 151.449 15.9661C151.874 16.9047 152.047 17.9463 152.344 18.9302C152.097 18.6462 151.853 18.3539 151.63 18.041C150.45 16.3778 149.703 14.3276 148.064 13.1132C147.821 12.932 147.569 12.7838 147.309 12.648C147.734 12.755 148.151 12.8867 148.551 13.0679ZM147.998 37.7728C148.031 37.4887 148.151 37.1964 148.316 36.9042C148.993 38.4397 149.505 39.93 149.922 41.3462C148.51 40.6093 147.854 39.1149 147.998 37.7728ZM162.501 25.1507C161.511 24.6731 160.491 24.2162 159.48 23.7345C160.219 23.8251 160.962 23.8827 161.705 23.9445C162.955 24.0515 164.259 24.1956 165.312 24.8831C167.103 26.0564 167.573 28.3824 167.35 30.5766C166.917 29.5639 166.595 28.4935 165.943 27.6043C165.093 26.464 163.785 25.7641 162.501 25.1466V25.1507Z" fill="#E83F6F"/>
<path d="M57.5645 143.455C57.5687 144.468 57.7668 145.53 57.3623 146.457C56.6029 148.19 54.2216 148.511 52.971 149.931C50.7548 152.446 53.1114 156.786 51.2954 159.601C49.9211 161.734 46.5616 162.265 45.8063 164.686C45.2285 166.542 46.5534 168.51 46.2975 170.437C45.8971 173.492 42.1373 174.62 39.8798 176.719C36.2562 180.091 36.0828 186.678 31.543 188.658C33.6189 189 35.4555 187.213 36.4171 185.344C37.3787 183.475 37.8988 181.33 39.3226 179.782C41.8649 177.02 46.867 176.596 48.0515 173.035C48.7696 170.877 47.6883 168.309 48.8026 166.324C50.5608 163.191 56.3677 163.875 57.416 160.437C57.969 158.63 56.7598 156.819 56.1283 155.04C55.4927 153.262 56.0169 150.59 57.9071 150.524C58.4849 150.503 59.0544 150.759 59.624 150.672C60.697 150.507 61.2253 149.239 61.2088 148.161C61.1923 147.082 60.8497 145.995 61.052 144.933C61.5225 142.447 64.5229 141.471 67.0281 141.092C69.5374 140.714 72.5213 140.117 73.4623 137.766C73.8131 136.885 73.7883 135.909 73.8667 134.962C74.3826 128.697 79.4879 122.727 77.4656 116.774C74.5972 119.471 73.7842 123.612 72.6203 127.363C71.3327 131.508 69.4507 134.448 65.3772 135.769C61.5266 137.021 57.5439 138.466 57.5645 143.451V143.455Z" fill="#F58F29"/>
<path d="M119.277 88.3809C120.065 88.5867 120.833 88.9161 121.646 88.9202C122.079 88.9202 122.508 88.8296 122.934 88.7596C125.133 88.385 127.383 88.4879 129.611 88.4097C131.84 88.3315 134.13 88.0598 136.095 87.0059C134.679 87.7757 133.429 88.8419 132.455 90.1223C131.77 91.0156 131.217 92.016 130.42 92.8106C128.522 94.7002 125.633 95.0995 122.958 95.3012C121.369 95.4247 119.756 95.5112 118.191 95.2106C116.623 94.9101 115.088 94.1856 114.101 92.9382C113.581 92.2795 113.231 91.5014 112.706 90.8468C111.724 89.6159 110.23 88.9202 108.794 88.2697C112.158 89.7929 115.752 87.4546 119.285 88.3809H119.277Z" fill="#E83F6F"/>
<path d="M132.777 88.6816C131.902 89.2292 130.92 89.6038 129.901 89.7685C129.228 89.8796 128.543 89.9002 127.874 90.0443C127.115 90.2049 126.401 90.5136 125.654 90.7195C124.267 91.1064 122.806 91.1311 121.366 91.1558C120.854 91.1641 120.342 91.1723 119.839 91.1147C118.654 90.9829 117.511 90.5013 116.322 90.5548C117.676 90.493 119.034 90.4889 120.392 90.5466C121.209 90.5836 122.026 90.6371 122.843 90.5918C123.388 90.5589 123.929 90.4848 124.465 90.4066C126.78 90.0772 129.1 89.7479 131.415 89.4186" fill="#733F6F"/>
<path d="M125.922 52.4456C126.591 51.6016 127.66 51.194 128.675 50.8276C131.597 49.7696 134.56 48.6993 137.656 48.4234C138.469 48.3493 139.306 48.3329 140.091 48.5593C140.722 48.7404 141.3 49.0698 141.869 49.395C145.027 51.2023 148.25 53.0631 150.635 55.809C149.76 56.056 148.952 55.315 148.238 54.7551C145.749 52.7955 142.356 52.5279 139.187 52.4744C138.634 52.4661 138.077 52.4579 137.544 52.3097C137.111 52.1903 136.698 51.9721 136.248 51.9351C135.642 51.8857 135.06 52.1656 134.527 52.4579C133.161 53.2113 131.873 54.1087 130.445 54.7468C129.393 55.2162 127.35 55.986 126.207 55.4179C125.146 54.8909 125.278 53.2566 125.914 52.4497L125.922 52.4456Z" fill="#462255"/>
<path d="M113.255 54.2363C112.381 53.6928 111.336 53.5199 110.321 53.3388C107.783 52.886 105.265 52.3137 102.781 51.618C102.339 51.4945 101.885 51.3669 101.427 51.3998C100.523 51.4698 99.7969 52.1449 99.1489 52.7789C98.1213 53.7917 97.0936 54.8044 96.066 55.8212C95.612 56.27 95.158 56.7187 94.7783 57.2292C94.3821 57.7644 94.0767 58.3613 93.7754 58.9541C96.3012 58.1513 98.2286 55.9283 100.816 55.3643C102.789 54.932 104.82 55.5331 106.776 56.0312C108.385 56.4388 110.016 56.7846 111.65 57.0769C112.257 57.188 112.888 57.2868 113.478 57.1098C114.069 56.9328 114.593 56.3852 114.535 55.7759C114.514 55.566 114.436 55.3766 114.362 55.1831C114.221 54.825 113.895 54.5821 113.582 54.3598C113.482 54.2898 113.375 54.2445 113.251 54.2404L113.255 54.2363Z" fill="#462255"/>
<path d="M43.9941 180.371C44.8402 179.947 45.6863 179.523 46.5323 179.094C46.4622 179.008 46.4044 178.909 46.3466 178.814C45.3809 179.07 44.51 179.535 43.9941 180.366V180.371Z" fill="#F58F29"/>
<path d="M129.69 10.5033C128.018 7.76147 124.803 5.53839 121.473 6.44821C121.209 6.51819 120.953 6.60876 120.705 6.71168C119.636 6.56759 118.543 6.60053 117.486 6.8393C114.486 7.52269 111.687 9.70871 108.666 9.12001C106.987 8.79067 105.583 7.63796 103.949 7.12336C101.551 6.36999 98.7323 7.19335 97.1145 9.11589C96.1652 10.2439 95.6287 11.6683 94.6795 12.7922C93.3464 14.3689 89.9085 12.9857 88.0513 13.8873C85.5007 15.1264 84.0315 17.8929 81.8152 20.7417C79.31 21.3222 76.8296 22.7507 76.2931 25.2002C76.2436 25.4308 76.2147 25.6654 76.194 25.9001C74.4441 26.954 72.3145 27.8391 69.636 28.4237C70.9856 28.9753 73.5568 28.399 76.1074 27.5386C76.0785 27.9255 76.0248 28.3125 75.9093 28.683C75.0096 31.536 71.2704 32.0506 68.7611 33.7014C64.9559 36.2086 64.3492 42.3591 67.5848 45.5619C70.0859 48.032 74.601 49.4605 74.4648 52.9722C72.8882 52.8363 71.1837 52.7293 69.8341 53.5567C69.1078 54.0014 68.6001 54.8288 68.4722 55.6522C66.421 56.2862 64.407 57.0231 62.4589 57.9164C64.4276 57.0025 66.6191 57.0684 68.8189 57.2495C68.8973 57.3566 68.9881 57.4554 69.0954 57.5459C69.5989 57.9617 70.2922 58.0893 70.7958 58.5051C71.8152 59.345 71.6583 61.0123 70.9443 62.1238C70.2262 63.2353 69.1119 64.0258 68.2741 65.055C64.1098 70.1804 68.2493 78.8751 64.0314 83.9552C62.3186 86.0218 59.3925 87.191 58.5671 89.7475C57.688 92.4811 59.669 95.6469 58.4432 98.2487C57.6467 99.949 55.6987 100.83 54.6834 102.415C52.8757 105.243 54.4688 109.471 52.2938 112.032C51.6541 112.781 50.7503 113.292 50.189 114.098C48.3441 116.762 51.2166 120.554 50.0693 123.579C49.4502 125.21 47.7994 126.231 46.9946 127.774C44.7247 132.122 50.156 137.222 48.8972 141.961C47.9438 145.555 43.3998 147.65 43.2265 151.372C43.0903 154.32 45.8596 157.329 44.444 159.931C43.8002 161.116 42.4547 161.746 41.6128 162.804C40.3251 164.41 40.4118 166.666 40.094 168.7C39.7803 170.733 38.5216 173.039 36.458 173.039C37.8406 174.521 40.4201 173.545 41.7366 172.005C43.049 170.462 43.8414 168.428 45.5171 167.292C46.2847 166.769 47.2174 166.452 47.8159 165.748C49.5534 163.698 48.0305 159.219 50.676 158.745C50.2756 161.759 50.8369 164.891 52.2649 167.572C51.489 167.654 50.7173 167.736 49.9414 167.819C49.442 170.28 49.6071 172.874 50.4201 175.253C49.3801 174.389 47.6756 174.463 46.7139 175.418C45.8349 176.291 45.6987 177.785 46.3466 178.835C46.9616 178.67 47.6136 178.588 48.2368 178.555C49.8423 178.469 51.5716 178.51 52.8923 177.6C54.2129 176.686 54.5926 174.344 53.1564 173.623C55.7152 173.615 59.0706 172.932 59.3306 170.387C59.475 169.008 58.534 167.773 58.1007 166.448C57.1391 163.508 59.1944 159.96 62.2278 159.321C64.2254 161.997 59.0541 165.579 60.4078 168.63C60.7421 169.383 61.4437 169.976 61.7284 170.721C61.0557 172.211 60.3789 173.706 59.702 175.196C58.2947 178.292 56.9286 182.059 58.8064 184.899C59.2645 185.583 59.9001 186.184 60.1271 186.978C60.5687 188.493 59.3595 190.049 59.5163 191.618C59.6401 192.849 60.5728 193.824 61.1383 194.924C62.5332 197.632 61.683 200.901 60.8122 203.82C63.0285 201.638 64.6092 198.826 65.319 195.796C65.5708 194.73 65.7318 193.59 66.3797 192.7C67.0277 191.811 68.3731 191.305 69.2481 191.972C70.5357 195.138 69.8341 198.723 69.1119 202.07C68.1626 206.455 67.2217 210.839 66.2724 215.228C71.1383 211.049 70.6802 203.462 73.4247 197.669C75.6369 193.001 79.9662 189.506 81.7492 184.656C83.9902 184.599 85.5379 187.723 84.1264 189.465C83.4 190.358 82.0587 191.083 82.2733 192.215C82.3765 192.754 82.8346 193.162 83.0038 193.688C83.2886 194.549 82.7521 195.442 82.3187 196.237C80.6513 199.296 80.3047 203.046 81.386 206.36C82.5911 204.005 83.7962 201.65 85.0013 199.287C85.736 197.851 86.4912 196.323 86.4376 194.705C86.3798 193.166 85.6906 191.317 86.842 190.292C87.3868 189.806 88.1669 189.724 88.8808 189.568C91.6378 188.958 94.015 186.842 94.923 184.17C94.4731 188.044 93.8871 192.211 91.192 195.047C90.705 195.562 90.1355 196.043 89.8631 196.694C89.5329 197.48 89.6774 198.369 89.8342 199.205C90.4161 202.441 90.9939 205.672 91.58 208.9C91.2251 206.105 95.3893 203.676 94.0563 201.193C93.6271 200.399 92.6696 199.823 92.6737 198.917C92.6778 197.797 94.0728 197.324 94.8982 196.562C95.6163 195.899 95.9341 194.932 96.2271 193.997C97.911 188.674 99.5949 183.343 101.279 178.016C100.961 180.177 104.213 182.001 104.931 184.393C105.191 185.261 105.096 186.192 104.997 187.102C104.382 192.709 103.767 198.32 103.148 203.927C106.846 199.271 104.853 191.828 108.576 187.196C109.442 186.122 110.598 185.233 111.134 183.956C111.914 182.112 111.188 179.963 111.642 178.016C112.397 174.788 116.273 172.372 115.571 169.136C117.065 170.099 116.562 172.363 115.992 174.055C114.481 178.551 113.821 183.524 115.377 188.003C114.647 185.002 115.328 181.688 117.185 179.222C117.824 178.374 118.604 177.604 119.025 176.624C119.529 175.459 119.463 174.138 119.636 172.878C120.061 169.778 121.968 166.97 122.777 163.957C122.835 164.015 122.884 164.08 122.942 164.142C122.942 163.879 122.934 163.611 122.921 163.348C123.066 162.673 123.148 161.993 123.14 161.285C123.124 160.305 122.917 159.346 122.583 158.42C121.799 151.627 119.715 144.987 116.442 138.972C115.059 136.428 113.433 133.373 114.816 130.821C115.497 129.561 116.83 128.713 117.399 127.396C118.67 124.464 115.633 121.22 116.211 118.083C116.475 116.638 117.465 115.457 118.155 114.16C118.65 113.234 118.988 112.254 119.211 111.245C118.208 111.048 117.465 110.669 117.115 110.492C115.373 109.599 115.204 108.689 112.971 106.803C111.844 105.857 111.118 105.437 110.305 104.889C106.788 102.477 104.226 99.1832 102.467 96.919C100.523 94.4119 98.559 91.8883 96.9948 88.0638C95.5544 84.5439 95.9176 83.5065 94.0315 79.8013C93.268 78.2905 92.6242 77.3148 92.2568 75.5199C91.9391 73.9514 92.0546 72.8398 92.2568 70.2092C92.4261 68.0932 92.5045 65.9771 92.7026 63.8611C92.7191 63.6635 92.7397 63.4741 92.7562 63.2889C92.8264 63.1654 92.9007 63.0419 92.9667 62.9142C95.3109 58.2787 93.2185 52.227 95.8846 47.7685C96.45 46.8258 97.2053 46.0024 97.7377 45.0391C98.4269 43.7876 98.7034 42.3549 99.1079 40.984C100.045 37.7976 101.774 34.7594 104.424 32.7504C107.073 30.7414 110.718 29.8934 113.842 31.0337C114.675 31.3384 115.464 31.7748 116.33 31.96C118.951 32.524 121.791 30.2474 121.799 27.5756C123.817 28.5307 126.487 27.7773 127.705 25.9124C128.869 24.1299 128.774 21.8862 128.646 19.7372C128.889 19.7784 129.137 19.8319 129.393 19.8896C129.814 19.9925 130.206 20.1077 130.577 20.2313C131.188 16.9008 131.576 13.6361 129.682 10.528L129.69 10.5033ZM107.989 12.3393C109.426 12.4711 110.581 12.9404 111.679 13.6197C110.911 13.9367 110.094 14.0931 109.199 14.0108C107.812 13.8831 106.57 13.1627 105.294 12.5822C106.268 12.3846 107.23 12.2735 107.989 12.3435V12.3393ZM92.067 17.4318C92.7851 16.9584 93.5445 16.839 94.3204 16.8143C93.2721 17.7406 92.1826 18.5886 90.9774 19.1527C90.8 19.235 90.6225 19.3091 90.4409 19.3791C90.9692 18.5681 91.5098 17.8023 92.067 17.4359V17.4318Z" fill="#F58F29"/>
<path d="M109.723 58.9372C108.803 58.5543 107.812 58.3649 106.822 58.2579C105.662 58.1385 104.49 58.1303 103.338 58.3073C102.232 58.4802 101.13 58.8301 100.239 59.5094C99.3476 60.1887 98.6872 61.2179 98.6377 62.3335C98.7698 62.35 98.8606 62.2018 98.9101 62.0783C99.1825 61.399 99.4301 60.6827 99.9295 60.1434C100.421 59.6123 101.11 59.3077 101.799 59.0895C104.399 58.2579 107.255 58.4761 109.789 59.4312C110.338 59.637 111.135 60.2422 111.696 60.2587C111.18 59.6658 110.437 59.2295 109.719 58.933L109.723 58.9372Z" fill="#462255"/>
<path d="M141.032 55.87C140.099 55.6147 139.121 55.6147 138.155 55.6271C137.156 55.6394 136.162 55.6683 135.163 55.7094C134.238 55.7465 133.297 55.8 132.427 56.1088C131.403 56.471 130.524 57.1668 129.802 57.9778C129.079 58.7888 128.502 59.711 127.924 60.629C129.36 58.0931 132.051 56.2981 134.948 55.9482C135.679 55.8576 136.417 55.8576 137.152 55.8618C138.138 55.87 139.129 55.8988 140.107 56.0511C140.594 56.1252 141.077 56.2323 141.547 56.3846C141.869 56.4875 142.253 56.7263 142.596 56.681C142.278 56.257 141.531 56.01 141.032 55.8741V55.87Z" fill="#462255"/>
<path d="M111.411 62.2183C110.879 62.3088 109.975 61.6296 109.488 61.3908C108.984 61.1438 108.477 60.8927 107.957 60.6827C107.499 60.4933 107.032 60.3328 106.549 60.2257C105.885 60.0775 105.2 60.0405 104.523 60.1064C102.864 60.2669 101.263 61.0368 100.156 62.28C99.8428 62.63 99.5622 63.0211 99.1949 63.3133C98.7079 63.7086 98.0888 63.9103 97.4697 63.9967C98.1548 63.6221 98.7698 63.1199 99.2692 62.5229C98.745 62.597 98.2126 62.6135 97.6802 62.5764C99.0092 62.4571 100.024 61.4114 101.168 60.7321C102.435 59.9787 103.916 59.67 105.394 59.7153C105.947 59.7317 106.504 59.7976 107.045 59.9087C107.222 59.9417 107.4 59.9829 107.573 60.0281C107.998 60.1393 108.419 60.2751 108.815 60.4686C109.236 60.6786 109.624 60.9503 110.008 61.222C110.474 61.5514 110.961 61.8683 111.411 62.2183Z" fill="black" stroke="black" stroke-width="0.44" stroke-miterlimit="10"/>
<path d="M144.717 59.1062C144.193 59.5508 143.388 59.4602 142.769 59.1515C142.154 58.8468 141.646 58.3652 141.044 58.0358C140.4 57.6818 139.673 57.5171 138.951 57.3977C138.489 57.3236 138.018 57.266 137.548 57.2454C136.855 57.2042 136.161 57.2248 135.476 57.3442C134.997 57.4265 134.527 57.5583 134.077 57.7435C133.446 57.9946 132.855 58.3487 132.36 58.8139C131.898 59.2544 131.518 59.7772 131.044 60.2054C130.561 60.6417 129.657 61.3457 128.988 61.3869C129.735 60.7364 130.581 60.2589 131.242 59.4932C131.51 59.1844 131.745 58.8427 132.051 58.5628C132.649 58.007 133.607 57.4018 134.391 57.1713C134.572 57.1178 134.75 57.0725 134.927 57.0395C135.559 56.9119 136.161 56.8831 136.797 56.8708C137.106 56.8625 137.428 56.8584 137.763 56.8461C138.959 56.8049 140.185 57.0025 141.242 57.5665C141.902 57.9164 142.492 58.4063 143.194 58.6698C143.648 58.8427 144.135 58.9127 144.614 58.9827C144.147 58.9909 143.681 58.9992 143.215 59.0074C143.706 59.1309 144.217 59.1638 144.717 59.1062Z" fill="black" stroke="black" stroke-width="0.44" stroke-miterlimit="10"/>
<path d="M69.4957 67.3856C68.405 69.1765 67.8642 71.6738 65.8643 72.2957C64.4604 72.7306 62.8368 71.9996 61.5156 72.639C60.3632 73.1993 59.8936 74.6275 59.9302 75.9083C59.9669 77.189 60.3842 78.4301 60.4819 79.7073C60.6954 82.4768 59.2713 85.3155 56.9236 86.8021C53.7753 88.7951 49.0601 88.6687 47.2484 91.9237C45.9749 94.217 46.8636 97.0435 46.8759 99.6625C46.8888 103.404 45.0486 106.875 43.2585 110.162C41.7949 112.85 39.7389 115.904 36.6757 115.877C39.1199 113.605 41.6 111.282 43.2503 108.386C44.9005 105.486 45.6202 101.866 44.34 98.7886C43.7323 97.3288 42.6937 96.0019 42.5383 94.4271C42.2927 91.9051 44.4245 89.7369 46.7079 88.627C48.9912 87.5171 51.5694 87.0528 53.734 85.7241C56.2003 84.2087 57.9512 81.5851 58.4056 78.7255C58.7992 76.2354 58.4168 73.2579 60.3336 71.6208C61.195 70.8884 62.3476 70.6151 63.3312 70.0548C65.4278 68.8625 66.5504 66.5156 68.2876 64.8463C70.8 62.4303 74.7067 61.5814 77.9932 62.7383C78.8768 63.0499 79.8649 63.9104 79.4272 64.7322C75.7637 63.7944 71.7488 63.6926 69.5029 67.3785L69.4957 67.3856Z" fill="#F58F29"/>
<path d="M72.9289 42.8052C72.0279 43.4299 70.7029 43.6029 70.5026 44.9699C70.3631 45.9279 70.8773 47.1402 70.6193 48.0229C70.3935 48.7944 69.6466 49.0065 68.9463 48.8742C68.2459 48.7418 67.5383 48.344 66.8343 48.1686C65.3078 47.7856 63.8575 48.5578 63.212 50.1009C62.3441 52.1643 62.7447 55.5149 61.0933 56.5276C59.9302 57.2386 58.328 56.3749 56.895 56.1462C54.8515 55.8245 53.0852 56.8372 51.4159 57.8355C50.0518 58.6507 48.5298 59.8499 48.7573 62.0203C49.8266 60.4806 50.921 58.9157 52.3856 57.9892C53.8503 57.0628 55.7786 56.8536 57.5497 58.0149C58.3904 58.567 59.1881 59.4132 60.0573 59.653C61.4509 60.0397 62.4844 58.7081 62.9288 57.1831C63.3732 55.6581 63.4476 53.8714 64.0213 52.4503C64.674 50.8283 65.9841 49.8087 67.5139 49.7253C68.8462 49.6528 70.4984 50.172 71.2554 48.9518C71.5963 48.4027 71.6641 47.6097 71.9007 46.9602C72.4026 45.5751 73.6053 44.9753 74.3983 43.8842C75.5394 42.305 75.7318 39.6105 74.8685 37.1858C74.6383 36.5365 74.0992 35.7619 73.6791 36.0061C74.4456 38.6785 74.7848 41.5305 72.9289 42.8159L72.9289 42.8052Z" fill="#F58F29"/>
<path d="M47.5214 116.463C47.4825 117.468 47.6986 118.526 47.243 119.445C46.3427 121.272 43.5848 121.323 42.0198 122.691C39.7765 124.651 40.6801 128.579 38.3362 130.428C37.4209 131.15 36.1534 131.405 35.3422 132.231C33.9138 133.685 34.5652 136.088 33.5355 137.814C31.8027 140.721 26.8141 139.888 24.4777 142.394C26.9447 142.159 29.4009 141.796 31.8318 141.296C34.0903 140.831 36.7544 139.847 37.1877 137.683C37.3416 136.915 37.1688 136.112 37.409 135.362C38.151 133.047 41.9647 132.948 43.1306 130.788C44.1278 128.94 42.7222 126.365 44.2117 124.835C45.1735 123.848 46.9403 123.84 47.7729 122.752C48.4977 121.805 48.1738 120.503 48.4963 119.383C49.0554 117.446 51.3029 116.497 53.0404 115.337C54.7778 114.177 56.1912 111.644 54.6606 110.342C52.6702 108.65 47.5744 114.978 47.5178 116.46L47.5214 116.463Z" fill="#F58F29"/>
<path d="M169.102 63.0588C168.568 61.9183 167.28 61.0867 167.994 59.436C168.495 58.2804 169.864 57.146 170.189 56.0157C170.471 55.0325 169.823 54.4301 168.99 54.2476C168.156 54.0616 167.133 54.177 166.267 54.0411C164.385 53.748 163.371 52.1737 163.728 50.1106C164.206 47.3442 166.901 43.7191 165.837 41.7824C165.085 40.4159 162.792 40.6361 161.121 40.2066C158.731 39.5945 157.545 37.5968 156.446 35.6673C155.547 34.0893 154.744 31.9946 156.464 29.6293C156.555 31.8966 156.656 34.1998 157.584 35.9573C158.511 37.7147 160.415 38.8724 163.088 38.3937C164.354 38.1669 165.774 37.5849 166.862 37.7242C168.604 37.9528 168.799 39.9617 168.238 41.9102C167.678 43.8586 166.541 45.9293 166.188 47.8238C165.785 49.9802 166.48 51.7736 168.048 52.5943C169.415 53.311 171.522 53.5107 171.498 55.2651C171.488 56.0508 171.02 56.9874 170.831 57.8414C170.427 59.6606 171.297 60.9157 171.395 62.5373C171.539 64.88 169.91 68.0416 167.35 70.3894C166.663 71.0213 165.565 71.6426 165.286 71.1656C167.914 68.4876 170.205 65.4009 169.109 63.0553L169.102 63.0588Z" fill="#E83F6F"/>
<path d="M179.808 46.8871C179.017 46.1341 178.572 44.8751 177.199 44.962C176.236 45.0236 175.156 45.774 174.244 45.7028C173.446 45.6423 173.084 44.9537 173.069 44.2397C173.055 43.5258 173.298 42.7543 173.326 42.0296C173.386 40.4582 172.337 39.1995 170.698 38.8847C168.504 38.4627 165.317 39.5408 163.993 38.1352C163.058 37.1456 163.576 35.3981 163.504 33.9523C163.399 31.8859 162.045 30.3727 160.735 28.9456C159.661 27.7802 158.176 26.5362 156.105 27.2082C157.826 27.9355 159.579 28.6843 160.782 29.9286C161.989 31.1728 162.587 33.0093 161.816 34.983C161.448 35.916 160.786 36.8707 160.73 37.7712C160.641 39.2135 162.151 39.9517 163.729 40.0727C165.307 40.1938 167.071 39.8986 168.573 40.1668C170.287 40.4743 171.554 41.5427 171.949 43.0206C172.293 44.3083 172.122 46.0305 173.471 46.5212C174.076 46.7397 174.867 46.6424 175.547 46.7425C177.003 46.9497 177.834 48.004 179.061 48.5486C180.836 49.3404 183.505 48.973 185.697 47.6299C186.284 47.2708 186.927 46.5852 186.605 46.223C184.152 47.5232 181.44 48.4396 179.808 46.8907L179.808 46.8871Z" fill="#E83F6F"/>
<defs>
<clipPath id="clip0_125_889">
<rect width="179.536" height="227.225" fill="white" transform="translate(0 25.5605)"/>
</clipPath>
</defs>
</svg>
