<?xml version="1.0" encoding="UTF-8"?>
<svg id="Layer_1" data-name="Layer 1" xmlns="http://www.w3.org/2000/svg" viewBox="0 0 267.82 226.55">
  <defs>
    <style>
      .cls-1 {
        fill: #462255;
        stroke-width: 0px;
      }
    </style>
  </defs>
  <path class="cls-1" d="m64.15,125.5v-35.95l75.47,36.98,99.78-48.89-99.78-47.84-99.78,47.84,14.04,6.88v40.39c-7.01,1.87-12.18,8.25-12.18,15.85,0,9.07,16.42,43.69,16.42,43.69,0,0,2.77-5.83,6.03-13.34v-25.77h4.42v15.2c3.24-8.12,5.97-16.07,5.97-19.77,0-6.94-4.31-12.86-10.39-15.26Z"/>
  <path class="cls-1" d="m139.63,140.86l-44.77-21.93c-2.12,5.61-3.29,11.7-3.29,18.05,0,28.19,22.86,51.05,51.05,51.05s51.05-22.86,51.05-51.05c0-7.29-1.54-14.22-4.29-20.49l-49.74,24.37Z"/>
</svg>