<?xml version="1.0" encoding="UTF-8"?>
<svg id="Layer_1" data-name="Layer 1" xmlns="http://www.w3.org/2000/svg" viewBox="0 0 300 300">
  <defs>
    <style>
      .cls-1 {
        fill: #462255;
        stroke-width: 0px;
      }
    </style>
  </defs>
  <path class="cls-1" d="m84.57,164.38v-31.16l65.43,32.06,86.5-42.38-86.5-41.47-86.5,41.47,12.18,5.97v35.01c-6.08,1.62-10.56,7.15-10.56,13.74,0,7.86,14.23,37.87,14.23,37.87,0,0,2.4-5.06,5.23-11.56v-22.34h3.83v13.17c2.81-7.04,5.18-13.94,5.18-17.14,0-6.01-3.74-11.15-9.01-13.23Z"/>
  <path class="cls-1" d="m150,177.69l-38.81-19.02c-1.84,4.87-2.86,10.14-2.86,15.65,0,24.44,19.81,44.26,44.26,44.26s44.26-19.81,44.26-44.26c0-6.32-1.33-12.32-3.72-17.76l-43.12,21.13Z"/>
</svg>