<?xml version="1.0" encoding="UTF-8"?>
<svg id="Layer_1" data-name="Layer 1" xmlns="http://www.w3.org/2000/svg" viewBox="0 0 753.94 744.76">
  <defs>
    <style>
      .cls-1 {
        fill: #462255;
        stroke-width: 0px;
      }
    </style>
  </defs>
  <path class="cls-1" d="m116.59,391.37c87.43,10.85,175.25,13.98,259.04,14.63,6.15.06,8.03,2.53,8.03,7.63v122.57c0,5.3-1.07,5.99-5.09,6.15-53,2.13-105.24,2.11-155.96-3.34-3.95-.42-6.33-.76-6.84,4.23l-1.05,9.96c-.16,1.52-2,1.9-2.85.42-2.08-3.63-4.97-8.61-6.18-5.67-1.82,4.37-2.42,5.06-7.56,4.37-5.16-.69-8.07-2.19-14.07.6-2.97,1.38-6.85-3.44-11.18.16-3.11,2.61-6.57-.08-7.09-4.11-.5-4.05-.61-7.92-3.94-8.84-3.34-.96-5.32-1.9-5.5-8.95-.08-3.72-1.23-10.42-3.92-14.97-6.45-10.91-18.62-.37-17.21-13.68.99-9.37,8.85-24.41,2.55-27.2-6.31-2.79-12.21-18.31-18.22-23.29-6.01-4.98-7.36-8.42-7.2-13.58.16-5.14-1.43-8.3-2.75-10.65-1.59-2.81-1.76-4.85-1.39-7.91l2.97-24.65c.29-2.46,2.23-4.28,5.44-3.88Z"/>
  <path class="cls-1" d="m380.8,102.43l8.5-7.81,11.08,10.81s3.42,32.07,7.81,35.28c0,0,0,2.16,1.6,3.38,1.6,1.22,2.81,5.13,15.35,10.05,0,0,5.8,1.72,8.77,9.85,1.66,4.53,4.33,6.74,6.38,7.81,1.13.59,1.25,2.17.22,2.94l-1.68,1.25s10.45,19.8,10.66,20.01-7.45-.84-7.45-.84c0,0,4.61,3.48,7.46,5.65,2.85,2.16,1.81,5.3,3.2,7.04,1.39,1.74,3.13,5.13,3.13,6.53v5.39l-8.45,8.36,9.85,6.32,3.9-9.29s13.28-.74,14.3-.46c1.02.28,8.27,1.58,9.11,1.58s10.12,8.74,10.12,8.74c0,0,2.23,10.59,1.39,14.5-.84,3.9-3.29,14.59-3.29,14.59l-10.17,10.73,2.65.87-4.74,4.71h-6.41l1.04,1.74.07,5.58-3.76,5.23-4.03.5c-.43.06-.48.65-.07.77,2.42.72,6.56,2.37,10.37,5.91l10.24-2.19c.81-.17,1.49.61,1.2,1.39-.22.6-.49,1.28-.78,1.91-.76,1.67,1.83,6.25,1.55,7.37-.28,1.12-6.03,4.27-7.99,4.37-1.95.09-5.67,3.53-4.46,7.53,0,0-3.62-1.3-4.73-1.02-1.12.28-3.44,4.18-7.43,3.9-3.99-.28-8.73,6.41-8.73,6.41l-13.19-4.09-15.7,2.23-1.3,2.97-4.09-2.6-6.88.09-4.12-2.99c-.54-.39-1.33-.05-1.37.62-.07,1.36-.89,2.98-4.36,2.96,0,0-1.95-.24-2.79,2.68-.84,2.93-1.74-2.37-4.28-.8-2.54,1.57-5.16,1.29-6.3,1.29s-.28,4.15-.28,4.15c0,0-17.03-3.35-14.8,1.04,2.23,4.39-8.08-7.04-12.89-6.41s-5.08,2.02-6.99,1.97c-1.9-.04-4.6.42-5.57,2.04-.98,1.63-3.76,1.02-4.37,1.67s-2.14,2.18-1.58,4.41c.56,2.23-1.25,1.49-1.95,2.93s2,1.25,2.04,2.32c.04,1.07,0,2.79-4.41,3.67l-.28,4s-7.01.75-7.99-3.9c0,0-1.21-.84-3.25-.84s-2.69.04-2.6-1.35c.09-1.4-2.09,3.07-3.57.93s-1.81-2.6-6.78-2.28c0,0-1.63,3.35-6.82,1.35,0,0-2-.51-3.07,4.65,0,0-.14,2.22-4.78,1.31,0,0-.15,3.57-4.7,3.94-4.55.37,1.35,2.83,1.35,2.83l-4.48,4.14s-1.88-7.6-8.22-8.15c0,0-3.43,6.18-6.64,2.41-3.2-3.76,6.43-9.18,7.59-6.71,1.16,2.46,12.87-10.32,12.87-10.32l.19-5.11s7.94.19,8.55-5.39l6.62-4.67s-2.69-10.19,3.26-10.33c0,0,3.73,2.37,5.3.1,1.56-2.27-.04-4.78.52-6.69.56-1.92,8.43-2.44,15.5-2.93,7.07-.48,6.69,2.3,9.16,2.3s11.43-.35,11.88-1.43c.45-1.08-.84-4.5.21-5.65.9-.99,9.03-10.39,11.21-12.91.2-.22.13-.58-.13-.72-.32-.16-.64-.55-.73-1.42-.19-1.82.14-7.25.14-7.39s-7.28-6.34-8.71-4.06c-1.43,2.27-4.88-8.33-4.88-8.33l4.53-12.55-7.8-3.55,6.18-4.27-3.16-1.39,4.44-9.11s-7.32-1.26-3.35-6.41,8.01-2.37,8.43-.38c.42,1.99,3.62-1.15,2.71-3.24s-3.88-1.49-3.83-1.63,1.53-4.93-3.44-6.46l2.09-2.05-5.62-4.83-2.23-4.74,4.41-2.09-1.76-5.21s4.46-5.06,4.25-6.8c-.2-1.74-2.51-2.3-2.51-3.77s.35-6.76.35-6.76l4.67-2.44-2.02-3.83,3.76-2.37s-1.6-2.65-1.6-3.21-2.71,2.23-2.71,2.23l-1.95-2.86-3.62,5.51-2.58-3.07,1.2-2.14c.25-.45-.2-.98-.69-.8l-2.2.84-8.46-15.2s1.86-4.74,2.32-7.62c.46-2.88,5.02-3.44,5.39-10.13,0,0,7.59-3.79,8.92-4.41,1.32-.63,23.12-22.27,23.12-22.27l-4.53-7.92"/>
  <path class="cls-1" d="m494.95,362.43l-.51,4.29-10.05,21.07-.85,4.17c-2.02,1.97-3.2,3.37-3.54,4.21-3.18,11.53-6.2,19.03-9.04,22.5l-1.99,9.47-7.03,5.64-1.13,5.93c-2.17,3.51-3.99,7.83-5.45,12.95-.5,1.68-1.39,6.64-2.66,14.87-.26.79-1.87,2.76-4.84,5.88-.64,3.34-.42,6.05.65,8.13l-1.95,4.86c1.15.8,2.68,3.44,4.58,7.91l3.97,2.15c-1.02,2.95-.02,5.57,2.98,7.84-1.34,4.04-1.73,6.78-1.2,8.23l11.12,15.58c-.05,2.12,1.1,5.48,3.45,10.08.32,4.97.71,7.91,1.18,8.81,1.59.69,3.69,4.45,6.29,11.26,4.29,4.53,6.36,6.9,6.21,7.11-.03,9.11-1.47,14.83-4.33,17.19,1.91,9.86,2.49,15.48,1.74,16.84l11.03,1.05c3.58,2.11,8.64,4.1,15.17,5.96,3.98,1.36,14.55,3.6,31.71,6.72-1.31-2.03-1.82-3.65-1.55-4.87l3.05-9.64c1.57-7.25,2.16-11.66,1.75-13.24l4.03-11.43c-.82-3.09,3.02-20.34,11.51-51.75.69-3.5,1.12-7.56,1.29-12.17l6.88-17.78c1.95-7.79,3.21-14.49,3.76-20.11l5.55-15.01c1.63-7.56,2.6-15.2,2.91-22.93l5.67-19.9c.12-.97-.09-1.41-.62-1.31-2.33,3.36-5.16,5.25-8.48,5.67-2.26.74-3.37-.37-3.32-3.31.29-.94,1.15-2.12,2.58-3.52,3.37-1.3,7.59-4.33,12.65-9.1l1.82-9.59-4.08-2.06-26.01-3.3c-1.63-.4-4.33-2.38-8.09-5.95l-29.62-6.69-27.19-12.71"/>
</svg>