<?xml version="1.0" encoding="UTF-8"?>
<svg id="Layer_1" data-name="Layer 1" xmlns="http://www.w3.org/2000/svg" viewBox="0 0 300 300">
  <defs>
    <style>
      .cls-1 {
        fill: #462255;
        stroke-width: 0px;
      }
    </style>
  </defs>
  <path class="cls-1" d="m129.87,175.95c-9.35,0-16.93,7.58-16.93,16.92s7.58,16.93,16.93,16.93,16.92-7.58,16.92-16.93-7.58-16.92-16.92-16.92Z"/>
  <path class="cls-1" d="m221.22,93.57c-4.21-5.4-10.47-11.18-22.22-15.24-18.99-6.57-40.86-.95-49.31,13.38-2.31,3.91-2.98,9.22-4.93,12.54-11.77,19.93-52.28,5.43-63.67,21.97-1.6,2.33-4.73,4.58-6.21,15.52-1.24,9.19,6.05,18.31,6.25,19.65.13.93.22,1.7.27,2.32-1.01.44-1.71,1.44-1.71,2.61s.7,2.16,1.69,2.6c-.58,1.42-.91,2.97-.91,4.6v38.73c0,6.72,5.45,12.16,12.16,12.16h74.47c6.72,0,12.16-5.45,12.16-12.16v-38.73c0-1.64-.33-3.21-.92-4.64.95-.46,1.61-1.43,1.61-2.56,0-.96-.48-1.8-1.2-2.32,0,0,0,0,0,0,3.27-1.19-1.66-5.76,2.5-12.71,4.96-8.31,13.41-7.2,24.33-8.69,12.39-1.69,19.4-5.93,22.59-14.52,4.93-13.26,1.47-23.71-6.95-34.51Zm-91.35,119.14c-10.95,0-19.83-8.88-19.83-19.83s8.88-19.83,19.83-19.83,19.83,8.88,19.83,19.83-8.88,19.83-19.83,19.83Zm-5.4-42.42v-5.13h10.79v5.13h-10.79Zm94.76-50.03c-.27,10.42-7.49,15.37-8.56,16.01-2.3,1.38-2.28.86-19.36,6.33-5.98,1.92-8.59,2.81-11.54,5.21-4.29,3.49-4.16,13.36-2.66,15.65-.8,0-1.52.33-2.04.86-2.13-1.85-4.91-2.97-7.96-2.97h-59.43v-2.75c0-1.04-.84-1.88-1.88-1.88h-13.64c-1.04,0-1.88.84-1.88,1.88v2.98c-2.14.42-4.08,1.4-5.66,2.79-.37-.4-.86-.69-1.41-.82.78-3.19-3.25-6.33-4.73-14.31-.99-5.34-1.82-11.4,6.08-22.16,2.95-4.02,12.84-6.22,22.47-6.99,5.13-.41,7.03-.41,26.19-1.45,7.07-.38,13.19-2.16,17.5-9.18,3.26-5.32,2.03-7.86,5.96-12.66,4.67-5.7,10.96-7.68,13.78-8.56,9.15-2.88,16.96-.99,20.85,0,9.98,2.54,16.23,7.97,18.99,10.43,6.22,5.53,9.15,13.31,8.94,21.6Z"/>
</svg>