<?xml version="1.0" encoding="UTF-8"?>
<svg id="Layer_1" data-name="Layer 1" xmlns="http://www.w3.org/2000/svg" viewBox="0 0 330.88 309.32">
  <defs>
    <style>
      .cls-1 {
        fill: #462255;
        stroke-width: 0px;
      }
    </style>
  </defs>
  <path class="cls-1" d="m105.94,204.01c-17.27,0-31.27,14-31.27,31.27s14,31.27,31.27,31.27,31.27-14,31.27-31.27-14-31.27-31.27-31.27Z"/>
  <path class="cls-1" d="m274.7,51.82c-7.78-9.98-19.34-20.65-41.04-28.16-35.08-12.14-75.48-1.75-91.09,24.72-4.27,7.23-5.5,17.04-9.12,23.16-21.74,36.83-96.59,10.03-117.63,40.59-2.96,4.3-8.74,8.47-11.47,28.66-2.29,16.97,11.18,33.82,11.54,36.31.25,1.72.4,3.14.5,4.29-1.86.81-3.16,2.67-3.16,4.83s1.29,3.98,3.12,4.81c-1.07,2.62-1.68,5.48-1.68,8.49v71.54c0,12.41,10.06,22.47,22.47,22.47h137.58c12.41,0,22.47-10.06,22.47-22.47v-71.54c0-3.04-.61-5.93-1.7-8.58,1.75-.86,2.97-2.64,2.97-4.72,0-1.77-.88-3.33-2.22-4.29,0,0,0,0,0,0,6.05-2.2-3.06-10.63,4.61-23.47,9.17-15.35,24.76-13.3,44.94-16.05,22.88-3.12,35.83-10.96,41.73-26.83,9.1-24.49,2.71-43.8-12.84-63.75Zm-168.76,220.09c-20.23,0-36.63-16.4-36.63-36.63s16.4-36.63,36.63-36.63,36.63,16.4,36.63,36.63-16.4,36.63-36.63,36.63Zm-9.97-78.36v-9.47h19.94v9.47h-19.94Zm175.06-92.43c-.5,19.26-13.84,28.39-15.82,29.58-4.24,2.56-4.21,1.59-35.77,11.69-11.05,3.54-15.87,5.2-21.32,9.63-7.93,6.44-7.69,24.68-4.92,28.91-1.48,0-2.81.61-3.77,1.59-3.94-3.42-9.08-5.49-14.7-5.49h-109.79v-5.08c0-1.92-1.56-3.47-3.47-3.47h-25.19c-1.92,0-3.47,1.55-3.47,3.47v5.5c-3.96.77-7.54,2.59-10.46,5.15-.69-.74-1.58-1.27-2.6-1.51,1.45-5.89-6-11.69-8.75-26.44-1.83-9.86-3.36-21.06,11.24-40.93,5.46-7.43,23.73-11.48,41.5-12.92,9.48-.76,12.99-.76,48.38-2.68,13.06-.71,24.37-3.98,32.33-16.97,6.03-9.83,3.75-14.53,11.01-23.39,8.62-10.53,20.25-14.19,25.45-15.82,16.9-5.31,31.34-1.83,38.52,0,18.43,4.7,29.99,14.73,35.08,19.26,11.49,10.22,16.91,24.59,16.51,39.9Z"/>
</svg>