<?xml version="1.0" encoding="UTF-8"?>
<svg id="Layer_1" data-name="Layer 1" xmlns="http://www.w3.org/2000/svg" viewBox="0 0 300 300">
  <defs>
    <style>
      .cls-1 {
        fill: #462255;
        stroke-width: 0px;
      }
    </style>
  </defs>
  <g>
    <path class="cls-1" d="m139.37,91.73c-3.02-4.24-5.25-9.68-3.51-14.59,2.6-7.34,12.88-9.17,19.86-5.7,6.97,3.47,11.47,10.34,15.99,16.68,6.29,8.81,13.26,17.14,20.84,24.88,4.89,5,10.4,10.56,10.43,17.56.03,5.81-3.97,11.03-8.91,14.09s-6.23,4.38-11.9,5.61c-1.68.36-4.67.2-7.95-.2-1.36-.16-6.64-1.57-7.65-2.48-11.07-10.01-4.52-15.92-7.57-28.6-2.62-10.89-13.37-18.49-19.6-27.24Z"/>
    <ellipse class="cls-1" cx="210.37" cy="139.53" rx="3.01" ry="4.64" transform="translate(-40.31 169.26) rotate(-40.32)"/>
    <ellipse class="cls-1" cx="206.2" cy="152.38" rx="3.34" ry="5.16" transform="translate(-49.61 169.61) rotate(-40.32)"/>
    <ellipse class="cls-1" cx="198.76" cy="160.87" rx="3.86" ry="5.95" transform="translate(-49.23 98.52) rotate(-24.87)"/>
    <ellipse class="cls-1" cx="187.9" cy="164.64" rx="3.92" ry="6.05" transform="translate(-43.58 70.69) rotate(-19.13)"/>
    <ellipse class="cls-1" cx="172.83" cy="164.64" rx="6.05" ry="9.33" transform="translate(-11.63 13.14) rotate(-4.21)"/>
  </g>
  <g>
    <path class="cls-1" d="m142.03,137.9c1.2-5.06,1.22-10.95-2.23-14.84-5.17-5.83-15.38-3.64-20.54,2.19-5.16,5.84-6.73,13.9-8.54,21.47-2.51,10.53-5.84,20.87-9.94,30.89-2.65,6.47-5.66,13.7-3.05,20.19,2.16,5.39,7.83,8.73,13.56,9.7,5.73.97,7.42,1.71,13.14.72,1.69-.3,4.4-1.57,7.29-3.18,1.2-.66,5.56-3.95,6.16-5.18,6.49-13.44-1.8-16.45-3.75-29.35-1.67-11.07,5.43-22.16,7.91-32.61Z"/>
    <ellipse class="cls-1" cx="94.23" cy="208.9" rx="4.64" ry="3.01" transform="translate(-133.66 233.12) rotate(-71.79)"/>
    <ellipse class="cls-1" cx="102.93" cy="219.24" rx="5.16" ry="3.34" transform="translate(-137.5 248.49) rotate(-71.79)"/>
    <ellipse class="cls-1" cx="113.02" cy="224.31" rx="5.95" ry="3.86" transform="translate(-116.48 326.36) rotate(-87.23)"/>
    <ellipse class="cls-1" cx="124.5" cy="223.71" rx="3.92" ry="6.05" transform="translate(-11.42 6.75) rotate(-2.97)"/>
    <ellipse class="cls-1" cx="138.46" cy="218.04" rx="6.05" ry="9.33" transform="translate(-60.29 53.08) rotate(-17.89)"/>
  </g>
</svg>