<?xml version="1.0" encoding="UTF-8"?>
<svg id="Layer_1" data-name="Layer 1" xmlns="http://www.w3.org/2000/svg" viewBox="0 0 267.82 226.55">
  <defs>
    <style>
      .cls-1 {
        fill: #462255;
        stroke-width: 0px;
      }
    </style>
  </defs>
  <g>
    <path class="cls-1" d="m116.06,47.63c-3.48-4.89-6.06-11.17-4.05-16.83,3-8.47,14.86-10.57,22.9-6.57s13.23,11.93,18.45,19.24c7.26,10.17,15.3,19.77,24.03,28.7,5.64,5.77,11.99,12.19,12.03,20.25.03,6.7-4.58,12.73-10.28,16.25s-7.18,5.05-13.73,6.47c-1.94.42-5.39.23-9.17-.23-1.57-.19-7.66-1.81-8.83-2.87-12.77-11.55-5.22-18.36-8.74-33-3.02-12.56-15.43-21.32-22.61-31.42Z"/>
    <ellipse class="cls-1" cx="197.96" cy="102.76" rx="3.47" ry="5.35" transform="translate(-19.47 152.49) rotate(-40.32)"/>
    <ellipse class="cls-1" cx="193.15" cy="117.59" rx="3.86" ry="5.95" transform="translate(-30.2 152.9) rotate(-40.32)"/>
    <ellipse class="cls-1" cx="184.57" cy="127.38" rx="4.45" ry="6.86" transform="translate(-36.46 89.44) rotate(-24.87)"/>
    <ellipse class="cls-1" cx="172.04" cy="131.73" rx="4.52" ry="6.97" transform="translate(-33.67 63.67) rotate(-19.13)"/>
    <ellipse class="cls-1" cx="154.66" cy="131.73" rx="6.98" ry="10.76" transform="translate(-9.26 11.72) rotate(-4.21)"/>
  </g>
  <g>
    <path class="cls-1" d="m119.12,100.89c1.38-5.84,1.41-12.63-2.58-17.12-5.96-6.72-17.74-4.2-23.69,2.53-5.95,6.73-7.76,16.03-9.85,24.77-2.9,12.15-6.74,24.07-11.47,35.63-3.06,7.46-6.52,15.8-3.52,23.29,2.49,6.22,9.03,10.07,15.64,11.19,6.6,1.12,8.56,1.98,15.16.83,1.95-.34,5.08-1.82,8.41-3.66,1.38-.77,6.41-4.55,7.1-5.98,7.49-15.5-2.07-18.97-4.32-33.86-1.93-12.77,6.27-25.56,9.13-37.62Z"/>
    <ellipse class="cls-1" cx="63.99" cy="182.78" rx="5.35" ry="3.47" transform="translate(-129.64 186.44) rotate(-71.79)"/>
    <ellipse class="cls-1" cx="74.02" cy="194.71" rx="5.95" ry="3.86" transform="translate(-134.07 204.17) rotate(-71.79)"/>
    <ellipse class="cls-1" cx="85.66" cy="200.55" rx="6.86" ry="4.45" transform="translate(-118.8 276.43) rotate(-87.23)"/>
    <ellipse class="cls-1" cx="98.91" cy="199.87" rx="4.52" ry="6.97" transform="translate(-10.22 5.39) rotate(-2.97)"/>
    <ellipse class="cls-1" cx="115.01" cy="193.33" rx="6.98" ry="10.76" transform="translate(-53.83 44.68) rotate(-17.89)"/>
  </g>
</svg>