<?xml version="1.0" encoding="UTF-8"?>
<svg id="Layer_1" data-name="Layer 1" xmlns="http://www.w3.org/2000/svg" viewBox="0 0 311.85 293.5">
  <defs>
    <style>
      .cls-1 {
        fill: #462255;
        stroke-width: 0px;
      }
    </style>
  </defs>
  <g>
    <path class="cls-1" d="m254.91,157.32c2.26-5.19,15.01-16.95,15.01-16.95l-42.39-46.93,7.31,37.11.2,1.42c4.75.87,8.35,5.02,8.35,10.02,0,5.63-4.56,10.19-10.19,10.19s-10.19-4.56-10.19-10.19c0-4.26,2.62-7.91,6.34-9.43l-.19-.89-5.82-37.38-23.78,58.6s15.99,6.7,19.89,10.79c3.24,3.4,3.28,4.53,4.04,6.15,1.46,3.08,1.15,5.57,1.3,7.44.48,6.15-4.37,14.56-4.37,14.56l20.87-3.88-.02-.08,1.43-.29v.02l20.93-3.49s-7.44-6.24-9.08-12.19c-.51-1.81-1.65-4.04-1.33-7.43.17-1.79-.18-2.87,1.7-7.16Z"/>
    <circle class="cls-1" cx="219.67" cy="77.1" r="11.56"/>
    <circle class="cls-1" cx="266.41" cy="98.67" r="8.8"/>
    <circle class="cls-1" cx="190.74" cy="119.86" r="8.8"/>
    <g>
      <path class="cls-1" d="m211.23,88.33c-6.88,4.25-12.29,10.65-15.32,18.25-.75,1.9-2.93,2.78-4.84,2.01-.02-.01-.05-.02-.08-.03-1.84-.74-2.77-2.87-2.03-4.72,3.26-8.21,8.87-15.25,15.97-20.29,1.7,2.04,3.85,3.68,6.31,4.77Z"/>
      <path class="cls-1" d="m259.3,89.47s-.03.03-.04.05c-1.24,1.64-3.55,2.01-5.19.77-6.01-4.53-13.41-7.32-21.46-7.61,1.54-2.11,2.65-4.57,3.12-7.26,8.54.84,16.38,4.04,22.87,8.95,1.59,1.2,1.89,3.49.7,5.09Z"/>
    </g>
  </g>
  <path class="cls-1" d="m210.8,197.46c2.28-4.74,4.03-9.74,5.21-14.89.71-3.1,1.59-6.08.54-9.07-.7-2-2.14-4.92-3.55-6.48-5.68-6.23-13.37-9.9-21.38-12.1,2.28-3.41,4.28-7.01,6.01-10.75-13.5-.08-27.43,1.7-40.91,1.25-4.63-.16-9.4-.62-13.52-2.75-4.12-2.13-7.49-6.27-7.48-10.91.03-6.88,6.74-11.45,11.56-16.37,7.43-7.57,11.16-19.91,5.73-29.03-6.11-10.26-20.05-11.96-31.98-12.11-8.81-.11-15.96.47-24.44,2.84-8.15,2.27-17.4,6.09-24.36,10.9-14.67,10.12-27.89,23.47-33.75,40.3-8.45,24.3.37,52.39,17.83,71.3,17.46,18.91,42.27,29.64,67.43,35.02,36.11,7.73,79.02,1.47,104.06-28.52,3.31-3.96,6.04-8.39,8.15-13.11l-25.14,4.47Zm-117.99-14.92c0,1.71-.41,3.21-1.22,4.49s-1.95,2.28-3.41,3-3.16,1.07-5.1,1.07-3.65-.36-5.11-1.07c-1.46-.72-2.6-1.71-3.41-3-.81-1.28-1.21-2.78-1.21-4.49v-15.25h4.96v14.82c0,.89.2,1.69.59,2.38.39.7.95,1.24,1.67,1.64.72.4,1.55.6,2.51.6s1.8-.2,2.52-.6,1.27-.94,1.66-1.64c.39-.7.59-1.49.59-2.38v-14.82h4.96v15.25Zm18.47,8.23l-4.82-8.01h-.18l-4.82,8.01h-5.69l7.35-11.74-7.21-11.74h5.63l4.74,8h.18l4.76-8h5.61l-7.17,11.74,7.33,11.74h-5.71Zm11.25,3.53h-4.21l7.57-28.11h4.21l-7.57,28.11Zm29.49-11.76c0,1.71-.41,3.21-1.22,4.49s-1.95,2.28-3.41,3-3.16,1.07-5.1,1.07-3.65-.36-5.11-1.07-2.6-1.71-3.41-3-1.22-2.78-1.22-4.49v-15.25h4.96v14.82c0,.89.2,1.69.59,2.38.39.7.95,1.24,1.67,1.64.72.4,1.56.6,2.51.6s1.8-.2,2.52-.6c.71-.4,1.27-.94,1.66-1.64.39-.7.59-1.49.59-2.38v-14.82h4.96v15.25Zm9.05,8.23h-4.96v-23.48h4.96v23.48Z"/>
</svg>