<?xml version="1.0" encoding="UTF-8"?>
<svg id="Layer_1" data-name="Layer 1" xmlns="http://www.w3.org/2000/svg" viewBox="0 0 300 300">
  <defs>
    <style>
      .cls-1 {
        fill: #462255;
        stroke-width: 0px;
      }
    </style>
  </defs>
  <g>
    <path class="cls-1" d="m210.79,153.68c1.45-3.33,9.63-10.88,9.63-10.88l-27.22-30.13,4.69,23.83.13.91c3.05.56,5.36,3.22,5.36,6.43,0,3.61-2.93,6.54-6.54,6.54s-6.54-2.93-6.54-6.54c0-2.74,1.68-5.08,4.07-6.06l-.12-.57-3.74-24-15.27,37.62s10.27,4.3,12.77,6.93c2.08,2.18,2.11,2.91,2.6,3.95.94,1.98.74,3.57.84,4.78.31,3.95-2.81,9.35-2.81,9.35l13.4-2.49v-.05s.9-.18.9-.18h0s13.44-2.23,13.44-2.23c0,0-4.78-4.01-5.83-7.83-.33-1.16-1.06-2.6-.86-4.77.11-1.15-.12-1.84,1.09-4.6Z"/>
    <circle class="cls-1" cx="188.17" cy="102.18" r="7.42"/>
    <circle class="cls-1" cx="218.18" cy="116.03" r="5.65"/>
    <circle class="cls-1" cx="169.6" cy="129.63" r="5.65"/>
    <g>
      <path class="cls-1" d="m182.75,109.39c-4.42,2.73-7.89,6.83-9.84,11.72-.48,1.22-1.88,1.79-3.1,1.29-.01,0-.03-.01-.05-.02-1.18-.48-1.78-1.84-1.3-3.03,2.09-5.27,5.69-9.79,10.25-13.02,1.09,1.31,2.47,2.36,4.05,3.06Z"/>
      <path class="cls-1" d="m213.61,110.12s-.02.02-.03.03c-.79,1.05-2.28,1.29-3.33.5-3.86-2.91-8.61-4.7-13.78-4.88.99-1.35,1.7-2.93,2-4.66,5.48.54,10.52,2.6,14.68,5.75,1.02.77,1.22,2.24.45,3.27Z"/>
    </g>
  </g>
  <path class="cls-1" d="m182.47,179.45c1.46-3.04,2.59-6.25,3.35-9.56.46-1.99,1.02-3.9.35-5.83-.45-1.29-1.37-3.16-2.28-4.16-3.65-4-8.58-6.35-13.73-7.77,1.46-2.19,2.75-4.5,3.86-6.9-8.66-.05-17.61,1.09-26.26.81-2.97-.1-6.03-.4-8.68-1.77-2.65-1.37-4.81-4.03-4.8-7,.02-4.42,4.33-7.35,7.42-10.51,4.77-4.86,7.16-12.78,3.68-18.64-3.92-6.59-12.87-7.68-20.53-7.77-5.66-.07-10.25.3-15.69,1.82-5.23,1.46-11.17,3.91-15.64,7-9.42,6.5-17.91,15.07-21.67,25.87-5.42,15.6.24,33.63,11.45,45.77,11.21,12.14,27.14,19.03,43.29,22.48,23.18,4.96,50.73.94,66.81-18.31,2.12-2.54,3.88-5.39,5.23-8.41-5.38.96-10.76,1.92-16.14,2.87Zm-75.75-9.58c0,1.1-.26,2.06-.78,2.89s-1.25,1.47-2.19,1.92-2.03.69-3.28.69-2.35-.23-3.28-.69c-.94-.46-1.67-1.1-2.19-1.92-.52-.82-.78-1.79-.78-2.89v-9.79h3.19v9.52c0,.57.13,1.08.38,1.53.25.45.61.8,1.07,1.05.46.25,1,.38,1.61.38s1.16-.13,1.62-.38.81-.61,1.07-1.05c.25-.45.38-.96.38-1.53v-9.52h3.19v9.79Zm11.86,5.29l-3.09-5.15h-.12l-3.09,5.15h-3.65l4.72-7.54-4.63-7.54h3.61l3.04,5.14h.12l3.05-5.14h3.6l-4.6,7.54,4.7,7.54h-3.67Zm7.22,2.27h-2.7l4.86-18.05h2.7l-4.86,18.05Zm18.93-7.55c0,1.1-.26,2.06-.78,2.89s-1.25,1.47-2.19,1.92-2.03.69-3.28.69-2.35-.23-3.28-.69-1.67-1.1-2.19-1.92-.78-1.79-.78-2.89v-9.79h3.19v9.52c0,.57.13,1.08.38,1.53.25.45.61.8,1.07,1.05.46.25,1,.38,1.61.38s1.16-.13,1.62-.38c.46-.25.81-.61,1.07-1.05.25-.45.38-.96.38-1.53v-9.52h3.19v9.79Zm5.81,5.29h-3.19v-15.08h3.19v15.08Z"/>
</svg>